<svg width="60" height="75" viewBox="0 0 60 75" fill="none" xmlns="http://www.w3.org/2000/svg">
<path opacity="0.998" fill-rule="evenodd" clip-rule="evenodd" d="M38.75 5.19917C39.3929 8.11081 39.1829 10.9697 38.12 13.7758C37.9762 15.9585 38.1649 18.1502 38.68 20.2775C39.1081 22.053 39.622 23.8073 40.22 25.5342C40.5637 23.0002 40.8904 20.4641 41.2 17.9258C41.8238 15.8606 42.8738 14.0623 44.35 12.5308V12.6692C42.4391 15.5165 41.7858 18.606 42.39 21.9375C42.7853 23.3613 43.1587 24.7909 43.51 26.2258C43.6443 27.2825 43.7377 28.3438 43.79 29.4075C43.988 31.3572 43.638 33.2016 42.74 34.9408C42.4624 35.3297 42.1583 35.6994 41.83 36.0475C40.3062 37.3675 39.0462 38.8891 38.05 40.6125C36.9133 42.2894 35.4666 43.6266 33.71 44.6242C33.1137 44.2506 32.4604 43.997 31.75 43.8633L30.63 43.1717C30.0505 42.4843 29.5786 41.7149 29.23 40.8892C29.7483 40.51 29.9583 40.0028 29.86 39.3675C27.3601 38.2811 26.1001 36.3906 26.08 33.6958C26.6359 35.3178 27.7326 35.9403 29.37 35.5633C30.0734 35.0249 30.3534 34.3102 30.21 33.4192C27.8892 34.0466 26.2558 33.3088 25.31 31.2058C25.2885 31.0637 25.313 30.9184 25.38 30.7908C25.833 32.0689 26.6963 32.4608 27.97 31.9667C29.1838 31.2567 30.4905 30.8417 31.89 30.7217C31.4395 30.3376 30.9262 30.0609 30.35 29.8917C29.3419 29.8039 28.326 29.874 27.34 30.0992C25.7758 29.9373 24.3525 29.407 23.07 28.5083C23.5229 28.6369 23.9895 28.7752 24.47 28.9233C25.1233 29.0156 25.7767 29.0156 26.43 28.9233C27.4236 28.4325 28.4532 28.0163 29.51 27.6783L31.05 27.54C29.8491 26.4837 28.4491 26.0687 26.85 26.295C25.2208 26.8866 23.5408 27.0711 21.81 26.8483C21.3502 26.7054 20.9302 26.4979 20.55 26.2258C19.7338 25.6297 19.2438 24.8458 19.08 23.8742C19.5355 24.8942 20.2588 25.6551 21.25 26.1567C21.8696 26.266 22.4763 26.2199 23.07 26.0183C24.7487 24.8276 26.6154 24.1128 28.67 23.8742C28.2066 23.461 27.6885 23.112 27.13 22.8367C25.8683 22.2945 24.5551 21.8775 23.21 21.5917C21.9808 21.5714 20.7675 21.6867 19.57 21.9375C19.0544 21.92 18.5403 21.8739 18.03 21.7992C16.6388 21.3218 15.6354 20.4457 15.02 19.1708C16.106 20.5714 17.5294 21.1017 19.29 20.7617C20.3375 20.567 21.3675 20.2895 22.37 19.9317C25.0913 19.5808 27.658 20.0649 30.07 21.3842L30.21 21.2458C29.9101 20.6959 29.4901 20.2579 28.95 19.9317C27.3899 19.1386 25.8495 18.3083 24.33 17.4417C22.128 15.9222 20.798 13.8703 20.34 11.2858C20.9974 13.316 22.1874 14.953 23.91 16.1967C25.1031 16.7546 26.3631 17.0313 27.69 17.0267C30.1599 17.4743 32.2832 18.5579 34.06 20.2775C34.0216 19.4692 33.8349 18.6853 33.5 17.9258C32.5505 15.8487 31.7094 13.7248 30.98 11.5625C30.6073 9.96152 30.5373 8.34764 30.77 6.72084L31.05 7.96584C31.2269 9.34317 31.6702 10.6343 32.38 11.8392C33.2541 12.9673 34.0945 14.1206 34.9 15.2975C35.1479 15.7408 35.3586 16.2035 35.53 16.6808C35.6142 16.8597 35.6844 17.0447 35.74 17.2342C35.8099 16.5903 35.8332 15.9447 35.81 15.2975C35.9463 13.6255 36.4363 12.0577 37.28 10.5942C38.0318 8.81742 38.3118 6.97297 38.12 5.06084C38.0664 4.98383 37.9964 4.93772 37.91 4.9225C37.695 3.33929 37.3912 1.7691 37 0.21917C37.4344 0.754907 37.7665 1.36428 37.98 2.0175C38.3026 3.06142 38.5597 4.12399 38.75 5.19917Z" fill="#1C4F58"/>
<path opacity="0.992" fill-rule="evenodd" clip-rule="evenodd" d="M37.91 4.92251C37.9964 4.93772 38.0664 4.98383 38.12 5.06084C38.3118 6.97297 38.0318 8.81742 37.28 10.5942C36.4363 12.0577 35.9463 13.6255 35.81 15.2975L35.53 16.6808C35.3586 16.2035 35.1479 15.7408 34.9 15.2975C34.0945 14.1206 33.2541 12.9673 32.38 11.8392C31.6702 10.6343 31.2269 9.34318 31.05 7.96584C31.0562 7.17568 31.0795 6.39179 31.12 5.61417C30.9891 5.97853 30.8724 6.34769 30.77 6.72084C30.5373 8.34764 30.6073 9.96153 30.98 11.5625C31.7094 13.7248 32.5505 15.8487 33.5 17.9258C33.8349 18.6853 34.0215 19.4692 34.06 20.2775C32.2832 18.5579 30.1599 17.4743 27.69 17.0267C26.3631 17.0313 25.1031 16.7546 23.91 16.1967C22.1873 14.953 20.9973 13.316 20.34 11.2858C20.798 13.8703 22.128 15.9222 24.33 17.4417C25.8495 18.3083 27.3899 19.1386 28.95 19.9317C29.4901 20.2579 29.9101 20.6959 30.21 21.2458L30.07 21.3842C27.658 20.0649 25.0913 19.5808 22.37 19.9317C21.3675 20.2895 20.3375 20.567 19.29 20.7617C17.5294 21.1017 16.106 20.5714 15.02 19.1708C15.6354 20.4457 16.6388 21.3218 18.03 21.7992C16.4684 21.9368 14.8818 21.9829 13.27 21.9375C11.3828 20.6037 9.95946 18.8976 9 16.8192C9.05161 17.7101 9.33161 18.5401 9.84 19.3092C10.4568 20.1157 11.0406 20.9464 11.59 21.7992C9.25947 21.9375 6.92426 21.9837 4.59 21.9375C7.57172 15.3259 12.2384 10.2306 18.59 6.65167C24.8054 3.56361 31.2454 2.98722 37.91 4.92251Z" fill="#FDFDFD"/>
<path opacity="0.99" fill-rule="evenodd" clip-rule="evenodd" d="M38.75 5.19917C44.5456 7.24558 49.2356 10.75 52.82 15.7125C54.2115 17.6682 55.4072 19.753 56.39 21.9375H42.39C41.7858 18.606 42.4391 15.5165 44.35 12.6692C44.6695 12.3066 44.9961 11.9377 45.33 11.5625L45.26 11.4242C44.8705 11.7383 44.5672 12.1072 44.35 12.5308C42.8737 14.0623 41.8237 15.8606 41.2 17.9258C40.8904 20.4641 40.5637 23.0002 40.22 25.5342C39.622 23.8073 39.1081 22.053 38.68 20.2775C38.1649 18.1502 37.9762 15.9585 38.12 13.7758C39.1829 10.9697 39.3929 8.11081 38.75 5.19917Z" fill="#FCFCFC"/>
<path fill-rule="evenodd" clip-rule="evenodd" d="M31.05 7.96583L30.77 6.72083C30.8716 6.3501 30.9883 5.98121 31.12 5.61417C31.0794 6.39746 31.056 7.18153 31.05 7.96583Z" fill="#8BA1A6"/>
<path fill-rule="evenodd" clip-rule="evenodd" d="M44.35 12.6692V12.5308C44.5672 12.1072 44.8705 11.7383 45.26 11.4242L45.33 11.5625C45.0024 11.9306 44.6757 12.2995 44.35 12.6692Z" fill="#5E7E85"/>
<path fill-rule="evenodd" clip-rule="evenodd" d="M35.81 15.2975C35.8333 15.9439 35.8099 16.5911 35.74 17.2342C35.6844 17.0447 35.6142 16.8597 35.53 16.6808L35.81 15.2975Z" fill="#93A8AC"/>
<path opacity="0.999" fill-rule="evenodd" clip-rule="evenodd" d="M13.27 21.9375C14.9732 24.1969 16.2332 26.6869 17.05 29.4075C17.1058 29.642 17.1759 29.873 17.26 30.0992C17.3734 29.5655 17.3501 29.0583 17.19 28.5775C17.1691 27.9289 17.2161 27.2799 17.33 26.6408L17.61 27.7475C17.7817 28.995 18.2017 30.1478 18.87 31.2058C19.6678 32.4782 20.6594 33.6214 21.81 34.595L26.01 36.9467C27.382 38.0461 28.4553 39.3603 29.23 40.8892C29.5786 41.7149 30.0505 42.4843 30.63 43.1717L31.75 43.8633C32.4604 43.997 33.1137 44.2506 33.71 44.6242C36.3771 45.7889 37.1238 47.6795 35.95 50.2958C35.7613 50.4315 35.5746 50.5699 35.39 50.7108C33.8922 51.45 32.3055 51.8189 30.63 51.8175C30.3171 51.7767 30.0371 51.8228 29.79 51.9558H29.09C28.3181 52.0101 27.5248 52.0101 26.71 51.9558C25.9106 51.969 25.1639 51.7846 24.47 51.4025C21.817 50.2087 19.577 48.5026 17.75 46.2842C16.9436 45.1416 16.0038 44.0969 14.95 43.1717C14.0943 42.8377 13.2077 42.7455 12.29 42.895C11.7434 43.0525 11.2301 43.237 10.75 43.4483C11.8564 42.4408 13.163 41.8875 14.67 41.7883L17.05 41.65C15.3857 41.0579 13.7505 40.3885 12.15 39.6442C8.66279 38.019 5.79279 35.6674 3.54 32.5892C2.99004 31.6893 2.58836 30.7087 2.35 29.6842C2.47619 29.7935 2.56952 29.9318 2.63 30.0992C3.75672 32.158 5.34339 33.795 7.39 35.01C8.5993 35.6421 9.83726 36.2191 11.1 36.7392L11.31 36.67C10.2474 35.897 9.38407 34.9517 8.72 33.8342C8.11661 32.524 7.57928 31.1852 7.11 29.8225C6.48784 27.7785 5.18117 26.349 3.19 25.5342C2.21417 25.3866 1.23362 25.2713 0.25 25.1883C1.2636 24.9904 2.29858 24.9206 3.33 24.9808C4.29631 25.3193 5.2328 25.7357 6.13 26.2258C6.82917 26.8018 7.4629 27.4512 8.02 28.1625C9.30884 30.4516 10.9188 32.5036 12.85 34.3183C13.6592 34.9261 14.5459 35.3411 15.51 35.5633C13.8826 34.2787 12.506 32.7801 11.38 31.0675C10.7346 29.3827 10.1509 27.6755 9.63 25.9492C9.13477 23.776 7.78144 22.554 5.57 22.2833C7.0666 22.009 8.37327 22.3779 9.49 23.39L10.68 24.8425C11.5179 26.754 12.7545 28.3679 14.39 29.6842C14.3501 27.2807 13.7201 25.0212 12.5 22.9058C12.2214 22.5178 11.9174 22.1481 11.59 21.7992C11.0406 20.9464 10.4568 20.1157 9.84 19.3092C9.33161 18.5401 9.05161 17.7101 9 16.8192C9.95947 18.8976 11.3828 20.6037 13.27 21.9375Z" fill="#213541"/>
<path opacity="0.995" fill-rule="evenodd" clip-rule="evenodd" d="M42.39 21.9375H56.39C56.9865 23.3365 57.5006 24.7683 57.93 26.2258H43.51C43.1587 24.7909 42.7853 23.3613 42.39 21.9375Z" fill="#F6F6F6"/>
<path fill-rule="evenodd" clip-rule="evenodd" d="M11.59 21.7992C11.9174 22.1481 12.2214 22.5178 12.5 22.9058C13.7201 25.0212 14.3501 27.2807 14.39 29.6842C12.7545 28.3679 11.5179 26.754 10.68 24.8425L9.49 23.39C8.37327 22.3779 7.0666 22.009 5.57 22.2833C7.78144 22.554 9.13478 23.776 9.63 25.9492C8.51934 26.2214 7.35267 26.3136 6.13 26.2258C5.23281 25.7357 4.29631 25.3193 3.33 24.9808C3.7473 23.9762 4.1673 22.9617 4.59 21.9375C6.94779 21.9832 9.28112 21.937 11.59 21.7992Z" fill="#F1F2F2"/>
<path fill-rule="evenodd" clip-rule="evenodd" d="M20.55 26.2258C19.5961 26.363 18.6161 26.4091 17.61 26.3642C17.6196 26.3158 17.6183 26.266 17.6062 26.2181C17.5941 26.1703 17.5715 26.1257 17.54 26.0875C17.4844 26.277 17.4142 26.4619 17.33 26.6408C17.216 27.2799 17.1691 27.9289 17.19 28.5775C17.2313 28.8867 17.1846 29.1634 17.05 29.4075C16.2332 26.6869 14.9732 24.1969 13.27 21.9375C14.8818 21.9829 16.4684 21.9368 18.03 21.7992C18.5385 21.8739 19.0518 21.92 19.57 21.9375C20.7662 21.6868 21.9873 21.5708 23.21 21.5917C24.5551 21.8775 25.8682 22.2945 27.13 22.8367C27.6885 23.112 28.2066 23.461 28.67 23.8742C26.6154 24.1128 24.7487 24.8276 23.07 26.0183C22.4763 26.2199 21.8696 26.266 21.25 26.1567C20.2588 25.6551 19.5355 24.8942 19.08 23.8742C19.2438 24.8458 19.7338 25.6297 20.55 26.2258Z" fill="#F4F5F5"/>
<path opacity="0.983" fill-rule="evenodd" clip-rule="evenodd" d="M3.19 25.5342C5.18117 26.349 6.48784 27.7785 7.11 29.8225C5.67061 30.0958 4.17728 30.1881 2.63 30.0992C2.56952 29.9318 2.47619 29.7934 2.35 29.6842C2.37399 29.547 2.32732 29.4548 2.21 29.4075C2.49261 28.1059 2.81946 26.814 3.19 25.5342Z" fill="#EEEFEF"/>
<path opacity="0.995" fill-rule="evenodd" clip-rule="evenodd" d="M43.51 26.2258H57.93C58.4633 27.8467 58.8384 29.5143 59.05 31.2058H43.93C43.9745 30.5789 43.9278 29.9795 43.79 29.4075C43.7377 28.3438 43.6443 27.2825 43.51 26.2258Z" fill="#EFF0F0"/>
<path fill-rule="evenodd" clip-rule="evenodd" d="M9.63 25.9492C10.1509 27.6755 10.7346 29.3827 11.38 31.0675C12.506 32.7801 13.8826 34.2787 15.51 35.5633C14.5459 35.3411 13.6592 34.9261 12.85 34.3183C10.9188 32.5036 9.30884 30.4516 8.02 28.1625C7.4629 27.4512 6.82917 26.8018 6.13 26.2258C7.35266 26.3136 8.51933 26.2214 9.63 25.9492Z" fill="#E9EAEB"/>
<path fill-rule="evenodd" clip-rule="evenodd" d="M17.61 26.3642V27.7475L17.33 26.6408C17.4142 26.4619 17.4844 26.277 17.54 26.0875C17.605 26.1697 17.6283 26.2619 17.61 26.3642Z" fill="#7D878F"/>
<path fill-rule="evenodd" clip-rule="evenodd" d="M20.55 26.2258C20.9302 26.4979 21.3502 26.7054 21.81 26.8483C23.5408 27.0711 25.2208 26.8866 26.85 26.295C28.4491 26.0687 29.8491 26.4837 31.05 27.54L29.51 27.6783C28.4532 28.0163 27.4236 28.4325 26.43 28.9233C25.78 29.0157 25.12 29.0157 24.47 28.9233C24.0049 28.7798 23.5382 28.6414 23.07 28.5083C24.3525 29.407 25.7758 29.9373 27.34 30.0992C28.326 29.874 29.3419 29.8039 30.35 29.8917C30.9261 30.0609 31.4395 30.3376 31.89 30.7217C30.4905 30.8417 29.1838 31.2567 27.97 31.9667C26.6963 32.4608 25.8329 32.0689 25.38 30.7908C25.313 30.9184 25.2885 31.0637 25.31 31.2058H18.87C18.2017 30.1478 17.7817 28.995 17.61 27.7475V26.3642C18.6161 26.4091 19.5961 26.363 20.55 26.2258Z" fill="#EDEEEF"/>
<path fill-rule="evenodd" clip-rule="evenodd" d="M17.19 28.5775C17.3501 29.0583 17.3734 29.5655 17.26 30.0992C17.1759 29.873 17.1058 29.642 17.05 29.4075C17.1846 29.1634 17.2313 28.8867 17.19 28.5775Z" fill="#757F87"/>
<path fill-rule="evenodd" clip-rule="evenodd" d="M7.11 29.8225C7.57928 31.1852 8.1166 32.524 8.72 33.8342C9.38406 34.9517 10.2474 35.897 11.31 36.67L11.1 36.7392C9.83726 36.2191 8.59929 35.6421 7.39 35.01C5.34338 33.795 3.75672 32.158 2.63 30.0992C4.17728 30.1881 5.67061 30.0958 7.11 29.8225Z" fill="#E6E8E9"/>
<path fill-rule="evenodd" clip-rule="evenodd" d="M18.87 31.2058H25.31C26.2558 33.3088 27.8892 34.0466 30.21 33.4192C30.3534 34.3102 30.0734 35.0249 29.37 35.5633C27.7326 35.9403 26.6359 35.3178 26.08 33.6958C26.1 36.3906 27.36 38.2811 29.86 39.3675C29.9583 40.0028 29.7483 40.51 29.23 40.8892C28.4553 39.3603 27.382 38.0461 26.01 36.9467L21.81 34.595C20.6594 33.6214 19.6678 32.4782 18.87 31.2058Z" fill="#E4E7E8"/>
<path opacity="0.999" fill-rule="evenodd" clip-rule="evenodd" d="M43.79 29.4075C43.9279 29.9795 43.9745 30.5789 43.93 31.2058H59.05C59.3562 32.848 59.4969 34.5162 59.47 36.1858C53.5662 36.2318 47.6862 36.1856 41.83 36.0475C42.1583 35.6994 42.4624 35.3296 42.74 34.9408C43.638 33.2016 43.988 31.3572 43.79 29.4075Z" fill="#E6E8E9"/>
<path fill-rule="evenodd" clip-rule="evenodd" d="M41.83 36.0475C47.6862 36.1856 53.5662 36.2318 59.47 36.1858V39.7825C53.8462 39.8284 48.2462 39.7823 42.67 39.6442C42.9685 39.1863 43.2958 38.7473 43.65 38.33C42.7171 38.6661 41.7371 38.8966 40.71 39.0217C39.8195 39.5535 38.9328 40.0838 38.05 40.6125C39.0462 38.8891 40.3062 37.3675 41.83 36.0475Z" fill="#E0E3E4"/>
<path opacity="0.997" fill-rule="evenodd" clip-rule="evenodd" d="M2.21 29.4075C2.32732 29.4548 2.37399 29.547 2.35 29.6842C2.58836 30.7087 2.99004 31.6893 3.54 32.5892C5.79279 35.6674 8.66279 38.019 12.15 39.6442C8.60518 39.7825 5.05728 39.8286 1.51 39.7825C1.32381 36.309 1.55882 32.8259 2.21 29.4075Z" fill="#E1E3E4"/>
<path fill-rule="evenodd" clip-rule="evenodd" d="M42.67 39.6442C41.3219 40.5063 41.1819 41.5668 42.25 42.8258C42.4863 43.0365 42.7444 43.2219 43.02 43.3792C43.089 43.603 43.1128 43.838 43.09 44.0708C43.1305 45.0341 42.8738 45.9102 42.32 46.6992C41.6663 47.3217 41.0359 47.9677 40.43 48.6358C39.644 49.2453 38.8 49.778 37.91 50.2267C37.108 50.5743 36.268 50.7356 35.39 50.7108C35.5746 50.5699 35.7613 50.4315 35.95 50.2958C37.1238 47.6795 36.3771 45.7889 33.71 44.6242C35.4666 43.6266 36.9133 42.2894 38.05 40.6125C38.9328 40.0838 39.8195 39.5535 40.71 39.0217C41.7371 38.8966 42.7171 38.6661 43.65 38.33C43.2958 38.7473 42.9685 39.1863 42.67 39.6442Z" fill="#1A7A78"/>
<path opacity="0.995" fill-rule="evenodd" clip-rule="evenodd" d="M12.15 39.6442C13.7505 40.3885 15.3857 41.0579 17.05 41.65L14.67 41.7883C13.163 41.8875 11.8564 42.4408 10.75 43.4483C11.2301 43.237 11.7434 43.0525 12.29 42.895C13.2077 42.7455 14.0943 42.8377 14.95 43.1717C16.0038 44.0969 16.9436 45.1416 17.75 46.2842C12.7113 46.4225 7.67043 46.4686 2.63 46.4225C2.01736 44.2662 1.64403 42.0528 1.51 39.7825C5.08075 39.8283 8.62742 39.7822 12.15 39.6442Z" fill="#D8DADC"/>
<path opacity="0.996" fill-rule="evenodd" clip-rule="evenodd" d="M42.67 39.6442C48.2462 39.7823 53.8462 39.8284 59.47 39.7825C59.3523 41.2658 59.1654 42.7429 58.91 44.2092C53.6265 44.2544 48.3532 44.2082 43.09 44.0708C43.1128 43.838 43.089 43.603 43.02 43.3792C42.7444 43.2219 42.4863 43.0365 42.25 42.8258C41.1819 41.5668 41.3219 40.5063 42.67 39.6442Z" fill="#DADCDE"/>
<path opacity="0.996" fill-rule="evenodd" clip-rule="evenodd" d="M43.09 44.0708C48.3532 44.2082 53.6265 44.2544 58.91 44.2092C58.6247 45.7051 58.2507 47.1832 57.79 48.6358H40.43C41.0359 47.9677 41.6663 47.3217 42.32 46.6992C42.8738 45.9102 43.1305 45.0341 43.09 44.0708Z" fill="#D4D7D7"/>
<path opacity="0.996" fill-rule="evenodd" clip-rule="evenodd" d="M17.75 46.2842C19.577 48.5026 21.817 50.2087 24.47 51.4025C17.7738 51.5407 11.0538 51.5868 4.31 51.5408C3.52945 49.9187 2.96945 48.2126 2.63 46.4225C7.69389 46.4684 12.7339 46.4223 17.75 46.2842Z" fill="#D0D3D4"/>
<path fill-rule="evenodd" clip-rule="evenodd" d="M50.09 54.3075C50.3768 55.9222 50.2135 57.49 49.6 59.0108C50.044 56.8495 49.5773 54.9129 48.2 53.2008C46.4907 51.3795 44.554 51.0798 42.39 52.3017C41.0377 53.776 39.637 55.2062 38.19 56.59C36.64 57.5467 34.96 57.9617 33.15 57.835C30.7017 56.6621 29.7683 54.7485 30.35 52.0942C30.1836 51.9657 29.9969 51.9196 29.79 51.9558C30.0371 51.8229 30.3171 51.7767 30.63 51.8175C30.0739 55.3026 31.5673 56.8934 35.11 56.59C36.3664 56.118 37.4164 55.3572 38.26 54.3075C39.1641 53.0909 40.1217 51.9139 41.13 50.78C43.8941 49.1703 46.4374 49.47 48.76 51.6792C49.3496 52.4753 49.7992 53.3638 50.09 54.3075Z" fill="#207B79"/>
<path opacity="0.993" fill-rule="evenodd" clip-rule="evenodd" d="M40.43 48.6358H57.79C57.1843 50.6149 56.3909 52.5055 55.41 54.3075H50.09C49.7992 53.3638 49.3495 52.4753 48.76 51.6792C46.4374 49.47 43.8941 49.1703 41.13 50.78C40.1217 51.9139 39.1641 53.0909 38.26 54.3075C37.4164 55.3572 36.3664 56.118 35.11 56.59C31.5672 56.8934 30.0739 55.3026 30.63 51.8175C32.3055 51.8189 33.8922 51.45 35.39 50.7108C36.268 50.7356 37.108 50.5743 37.91 50.2267C38.8 49.778 39.644 49.2453 40.43 48.6358Z" fill="#CDD1D1"/>
<path opacity="0.997" fill-rule="evenodd" clip-rule="evenodd" d="M24.47 51.4025C25.1639 51.7846 25.9106 51.969 26.71 51.9558C27.1498 52.0695 27.6165 52.1386 28.11 52.1633C27.9248 52.2762 27.8315 52.4376 27.83 52.6475C27.4462 52.9836 27.0947 53.3541 26.78 53.7542C26.1611 54.7483 25.5775 55.7633 25.03 56.7975H6.97C5.86213 55.1617 4.97546 53.4094 4.31 51.5408C11.0538 51.5868 17.7738 51.5407 24.47 51.4025Z" fill="#CBCECF"/>
<path opacity="0.969" fill-rule="evenodd" clip-rule="evenodd" d="M27.83 52.6475C26.8241 54.1736 26.1007 55.8336 25.66 57.6275C25.0289 62.9988 27.4322 66.0191 32.87 66.6883C34.4159 66.709 35.9559 66.8012 37.49 66.965C38.6917 67.306 39.8624 67.7456 40.99 68.2792C43.3504 69.8982 44.7737 72.1116 45.26 74.9192C44.4381 72.7162 43.0614 70.9409 41.13 69.5933C40.5611 69.2907 39.9465 69.0805 39.31 68.9708C39.2032 68.8646 39.0632 68.7954 38.89 68.7633C34.9817 69.1712 31.295 68.4796 27.83 66.6883C25.7917 65.3578 24.6717 63.4903 24.47 61.0858C24.4468 60.3466 24.4701 59.6088 24.54 58.8725C24.7035 58.179 24.8669 57.4873 25.03 56.7975C25.5775 55.7633 26.1611 54.7483 26.78 53.7542C27.0947 53.3541 27.4462 52.9836 27.83 52.6475Z" fill="#233642"/>
<path fill-rule="evenodd" clip-rule="evenodd" d="M28.11 53.4775C27.891 54.5236 27.7971 55.5914 27.83 56.6592L27.55 55.5525C27.6323 54.8182 27.819 54.1266 28.11 53.4775Z" fill="#778D93"/>
<path fill-rule="evenodd" clip-rule="evenodd" d="M27.55 55.5525L27.83 56.6592C28.1569 59.6326 29.6969 61.7307 32.45 62.9533C33.7136 63.2294 34.8803 62.9988 35.95 62.2617C36.9757 60.9256 38.2824 59.9572 39.87 59.3567C40.57 59.2644 41.27 59.2644 41.97 59.3567C42.5085 59.5069 42.9752 59.7605 43.37 60.1175C42.1223 59.4705 40.9557 59.5857 39.87 60.4633C39.0018 61.9211 37.8818 63.1661 36.51 64.1983C34.2233 65.55 32.0767 65.3656 30.07 63.645C27.9451 61.3606 27.1051 58.6631 27.55 55.5525Z" fill="#1E5059"/>
<path opacity="0.995" fill-rule="evenodd" clip-rule="evenodd" d="M6.97 56.7975H25.03C24.8669 57.4873 24.7035 58.179 24.54 58.8725C24.4703 59.6081 24.4469 60.3473 24.47 61.0858C19.7581 61.2242 15.0438 61.2703 10.33 61.2242C9.0755 59.8531 7.9508 58.3714 6.97 56.7975Z" fill="#C4C8C9"/>
<path opacity="0.996" fill-rule="evenodd" clip-rule="evenodd" d="M50.09 54.3075H55.41C54.0985 56.8099 52.5118 59.1154 50.65 61.2242C48.6422 61.2702 46.6334 61.2241 44.63 61.0858C44.2848 60.6506 43.8648 60.3279 43.37 60.1175C42.9752 59.7605 42.5085 59.5069 41.97 59.3567C41.27 59.2644 40.57 59.2644 39.87 59.3567C38.2824 59.9572 36.9757 60.9256 35.95 62.2617C34.8803 62.9988 33.7136 63.2294 32.45 62.9533C29.6969 61.7307 28.1569 59.6326 27.83 56.6592C27.797 55.5914 27.891 54.5236 28.11 53.4775C28.2992 53.0636 28.4858 52.6486 28.67 52.2325C28.8138 52.146 28.9539 52.0537 29.09 51.9558H29.79C29.9969 51.9196 30.1836 51.9657 30.35 52.0942C29.7683 54.7485 30.7017 56.6621 33.15 57.835C34.96 57.9617 36.64 57.5467 38.19 56.59C39.637 55.2062 41.0377 53.776 42.39 52.3017C44.554 51.0798 46.4907 51.3795 48.2 53.2008C49.5773 54.9128 50.044 56.8495 49.6 59.0108C50.2135 57.49 50.3768 55.9222 50.09 54.3075Z" fill="#C5C9CA"/>
<path opacity="0.982" fill-rule="evenodd" clip-rule="evenodd" d="M24.47 61.0858C24.6717 63.4903 25.7917 65.3578 27.83 66.6883C31.295 68.4796 34.9817 69.1712 38.89 68.7633C39.0632 68.7954 39.2032 68.8646 39.31 68.9708C27.9833 72.4097 18.3233 69.8275 10.33 61.2242C15.0672 61.2701 19.7806 61.224 24.47 61.0858Z" fill="#BEC3C3"/>
<path opacity="0.989" fill-rule="evenodd" clip-rule="evenodd" d="M26.71 51.9558C27.5248 52.0101 28.3181 52.0101 29.09 51.9558C28.9539 52.0537 28.8138 52.146 28.67 52.2325C28.4858 52.6486 28.2992 53.0636 28.11 53.4775C27.819 54.1266 27.6323 54.8182 27.55 55.5525C27.1051 58.6631 27.9451 61.3606 30.07 63.645C32.0767 65.3656 34.2233 65.55 36.51 64.1983C37.8818 63.1661 39.0018 61.9211 39.87 60.4633C40.9557 59.5857 42.1223 59.4705 43.37 60.1175C43.8648 60.3279 44.2848 60.6506 44.63 61.0858C46.6334 61.2241 48.6423 61.2702 50.65 61.2242C47.9431 64.2686 44.7231 66.6203 40.99 68.2792C39.8624 67.7456 38.6917 67.306 37.49 66.965C35.9553 66.8011 34.4135 66.7088 32.87 66.6883C27.4322 66.0191 25.0289 62.9988 25.66 57.6275C26.1007 55.8336 26.8241 54.1736 27.83 52.6475C27.8315 52.4376 27.9248 52.2762 28.11 52.1633C27.6165 52.1386 27.1498 52.0695 26.71 51.9558Z" fill="#BEC3C4"/>
</svg>
