<svg width="68" height="70" viewBox="0 0 68 70" fill="none" xmlns="http://www.w3.org/2000/svg">
<path fill-rule="evenodd" clip-rule="evenodd" d="M47.8957 0C52.6561 6.25648 55.467 14.0091 55.467 22.487C55.467 43.0246 38.8284 59.7086 18.2455 59.7086C11.853 59.7086 5.82318 58.0764 0.564117 55.2655C7.36464 64.1969 18.1095 70 30.2144 70C50.7519 70 67.4359 53.3614 67.4359 32.7785C67.3905 18.5881 59.5019 6.25648 47.8957 0Z" fill="#DDD0C5"/>
<path fill-rule="evenodd" clip-rule="evenodd" d="M61.9048 41.0751C61.9048 41.2834 61.8637 41.4898 61.784 41.6823C61.7042 41.8748 61.5874 42.0498 61.44 42.1971C61.2927 42.3444 61.1177 42.4613 60.9252 42.5411C60.7327 42.6208 60.5264 42.6619 60.318 42.6619C60.1096 42.6619 59.9033 42.6208 59.7107 42.5411C59.5182 42.4613 59.3433 42.3444 59.196 42.1971C59.0486 42.0498 58.9317 41.8748 58.852 41.6823C58.7722 41.4898 58.7312 41.2834 58.7312 41.0751C58.7312 40.6542 58.8984 40.2506 59.196 39.953C59.4935 39.6555 59.8971 39.4883 60.318 39.4883C60.7388 39.4883 61.1424 39.6555 61.44 39.953C61.7376 40.2506 61.9048 40.6542 61.9048 41.0751Z" fill="#A59B95"/>
<path fill-rule="evenodd" clip-rule="evenodd" d="M35.7908 59.9805C35.7908 60.2209 35.6953 60.4516 35.5252 60.6216C35.3552 60.7917 35.1245 60.8872 34.8841 60.8872C34.6436 60.8872 34.4129 60.7917 34.2429 60.6216C34.0729 60.4516 33.9773 60.2209 33.9773 59.9805C33.9773 59.74 34.0729 59.5094 34.2429 59.3393C34.4129 59.1693 34.6436 59.0737 34.8841 59.0737C35.1245 59.0737 35.3552 59.1693 35.5252 59.3393C35.6953 59.5094 35.7908 59.74 35.7908 59.9805Z" fill="#A59B95"/>
<path fill-rule="evenodd" clip-rule="evenodd" d="M33.0706 57.4871C33.0706 57.1698 33.0253 56.8978 32.9799 56.6257C30.4411 57.7138 27.7209 58.5752 24.91 59.0739C25.5447 60.6154 27.0408 61.7488 28.8543 61.7488C31.1664 61.7035 33.0706 59.7993 33.0706 57.4871Z" fill="#A59B95"/>
<path fill-rule="evenodd" clip-rule="evenodd" d="M16.7947 67.4157C16.84 67.2344 16.84 67.0984 16.84 66.917C16.84 65.2396 15.4799 63.9248 13.8478 63.9248C12.941 63.9248 12.1703 64.3328 11.6263 64.9222C13.2131 65.9196 14.9812 66.7357 16.7947 67.4157Z" fill="#A59B95"/>
<path fill-rule="evenodd" clip-rule="evenodd" d="M54.1522 61.2046C53.5175 61.0232 52.8374 60.8872 52.1574 60.8872C48.8025 60.8872 46.0822 63.3807 45.6289 66.5996C48.7118 65.1942 51.568 63.3354 54.1522 61.2046Z" fill="#A59B95"/>
<path fill-rule="evenodd" clip-rule="evenodd" d="M61.2247 35.8162C61.2247 38.4004 63.3102 40.4859 65.8944 40.4859C66.1211 40.4859 66.3478 40.4405 66.5745 40.4405C67.1185 37.947 67.3905 35.3628 67.3905 32.7333C67.3905 32.2799 67.3905 31.8265 67.3452 31.3732C66.8918 31.2372 66.3931 31.1465 65.8944 31.1465C63.3102 31.1465 61.2247 33.232 61.2247 35.8162Z" fill="#A59B95"/>
<path fill-rule="evenodd" clip-rule="evenodd" d="M31.5745 57.1697C31.5291 57.1697 31.4385 57.215 31.3931 57.215C31.4385 57.2604 31.4838 57.3057 31.5745 57.1697Z" fill="#DDD0C5"/>
<path fill-rule="evenodd" clip-rule="evenodd" d="M30.8491 57.4417C30.8038 57.4417 30.8038 57.4416 30.7584 57.487C30.8038 57.5323 30.8491 57.487 30.8491 57.4417Z" fill="#DDD0C5"/>
<path fill-rule="evenodd" clip-rule="evenodd" d="M30.2144 57.9404C30.2144 58.0764 29.9424 57.8951 29.9877 58.0311C30.0784 58.0311 30.1237 58.1218 30.2597 58.0764C30.2597 58.0311 30.2597 57.9404 30.2144 57.9404Z" fill="#DDD0C5"/>
<path fill-rule="evenodd" clip-rule="evenodd" d="M27.9475 58.3484C27.9022 58.3937 27.9475 58.3937 27.9475 58.3484V58.3484Z" fill="#DDD0C5"/>
<path fill-rule="evenodd" clip-rule="evenodd" d="M30.6677 58.5752C30.5771 58.6659 30.6224 58.8019 30.7584 58.7565C30.7584 58.6205 30.7584 58.5752 30.6677 58.5752Z" fill="#DDD0C5"/>
<path fill-rule="evenodd" clip-rule="evenodd" d="M31.8465 58.7565C31.8918 58.7565 31.8918 58.4845 31.8011 58.6659L31.8465 58.7565Z" fill="#DDD0C5"/>
<path fill-rule="evenodd" clip-rule="evenodd" d="M32.4359 58.9833C32.3452 58.9833 32.2999 58.8926 32.2092 58.8926C32.1639 59.0286 32.4359 59.0739 32.4359 58.9833Z" fill="#DDD0C5"/>
<path fill-rule="evenodd" clip-rule="evenodd" d="M28.5822 59.3459C28.6729 59.3006 28.8543 59.3913 28.8543 59.3006C28.7636 59.3006 28.5822 59.2099 28.5822 59.3459Z" fill="#DDD0C5"/>
<path fill-rule="evenodd" clip-rule="evenodd" d="M31.6198 59.482C31.7105 59.482 31.8012 59.482 31.8012 59.3913C31.7105 59.3913 31.5745 59.346 31.6198 59.482Z" fill="#DDD0C5"/>
<path fill-rule="evenodd" clip-rule="evenodd" d="M26.8594 59.5272C27.0861 59.6179 27.1315 59.3459 26.8594 59.5272V59.5272Z" fill="#DDD0C5"/>
<path fill-rule="evenodd" clip-rule="evenodd" d="M30.3957 59.754C30.4864 59.754 30.5771 59.754 30.5317 59.6633H30.4411C30.4411 59.7087 30.3957 59.7087 30.3957 59.754Z" fill="#DDD0C5"/>
<path fill-rule="evenodd" clip-rule="evenodd" d="M26.0434 60.0714V60.2074C26.1794 60.2527 26.1794 59.9807 26.0434 60.0714Z" fill="#DDD0C5"/>
<path fill-rule="evenodd" clip-rule="evenodd" d="M26.5874 60.2073C26.5421 60.2979 26.3607 60.3886 26.5421 60.434C26.4968 60.2979 26.7688 60.2979 26.5874 60.2073Z" fill="#DDD0C5"/>
<path fill-rule="evenodd" clip-rule="evenodd" d="M26.7688 60.2073C26.6781 60.2979 26.7688 60.2526 26.7688 60.3886C26.9501 60.434 26.9501 60.1619 26.7688 60.2073Z" fill="#DDD0C5"/>
<path fill-rule="evenodd" clip-rule="evenodd" d="M30.9851 60.2527C31.0304 60.3887 30.8491 60.3434 30.8491 60.434C30.9398 60.57 31.1664 60.298 30.9851 60.2527Z" fill="#DDD0C5"/>
<path fill-rule="evenodd" clip-rule="evenodd" d="M27.5395 60.3885C27.4942 60.3885 27.4488 60.2979 27.4035 60.2979C27.4035 60.3885 27.5395 60.5245 27.5395 60.3885Z" fill="#DDD0C5"/>
<path fill-rule="evenodd" clip-rule="evenodd" d="M31.2571 60.2979C31.2571 60.3432 31.2571 60.4792 31.3025 60.4792C31.3478 60.4339 31.3478 60.3432 31.2571 60.2979Z" fill="#DDD0C5"/>
<path fill-rule="evenodd" clip-rule="evenodd" d="M29.4437 60.8419C29.5343 60.9326 29.625 60.8419 29.6703 60.7512C29.5797 60.6605 29.489 60.7965 29.4437 60.8419Z" fill="#DDD0C5"/>
<path fill-rule="evenodd" clip-rule="evenodd" d="M28.9449 61.0233C29.0356 61.1593 29.3076 60.8873 29.1716 60.7966C29.1263 60.9326 28.9903 60.9326 28.9449 61.0233Z" fill="#DDD0C5"/>
<path fill-rule="evenodd" clip-rule="evenodd" d="M27.3582 61.3408C27.5395 61.3408 27.6302 61.2954 27.6302 61.1594C27.5395 61.2048 27.4035 61.2048 27.3582 61.3408Z" fill="#DDD0C5"/>
<path fill-rule="evenodd" clip-rule="evenodd" d="M32.4359 57.351C32.4359 57.3057 32.4359 57.3057 32.4812 57.3057V57.215C32.3905 57.2604 32.1639 57.1244 32.2545 57.215C32.3452 57.215 32.3905 57.3057 32.4359 57.351Z" fill="#DDD0C5"/>
<path fill-rule="evenodd" clip-rule="evenodd" d="M32.8439 58.4391H32.9346V58.3938C32.8892 58.3938 32.7986 58.4391 32.8439 58.4391Z" fill="#DDD0C5"/>
<path fill-rule="evenodd" clip-rule="evenodd" d="M31.1665 58.7112C31.1665 58.8019 31.0305 58.7565 31.0305 58.8472C31.1665 58.8925 31.2571 58.7112 31.1665 58.7112Z" fill="#DDD0C5"/>
<path fill-rule="evenodd" clip-rule="evenodd" d="M26.0434 58.9831C25.9981 58.8924 26.1341 58.8471 26.1341 58.8018H25.9527V58.8924L26.0434 58.9831Z" fill="#DDD0C5"/>
<path fill-rule="evenodd" clip-rule="evenodd" d="M29.3076 59.0738C29.3076 58.9831 29.4436 59.0284 29.4436 58.9377C29.353 58.9377 28.9903 59.0738 29.3076 59.0738Z" fill="#DDD0C5"/>
<path fill-rule="evenodd" clip-rule="evenodd" d="M25.59 59.1192C25.726 59.1645 25.726 59.0285 25.8167 58.9832C25.726 58.9832 25.6354 59.0285 25.59 59.1192Z" fill="#DDD0C5"/>
<path fill-rule="evenodd" clip-rule="evenodd" d="M30.5317 59.2098C30.6677 59.2098 30.6224 59.1192 30.7131 59.0738C30.5771 59.0285 30.5771 59.1192 30.5317 59.2098Z" fill="#DDD0C5"/>
<path fill-rule="evenodd" clip-rule="evenodd" d="M25.318 59.3912C25.318 59.3006 25.454 59.3459 25.454 59.2552C25.3633 59.2099 25.2273 59.3459 25.318 59.3912Z" fill="#DDD0C5"/>
<path fill-rule="evenodd" clip-rule="evenodd" d="M30.8944 59.7992C31.0304 59.7992 30.9397 59.9805 31.0758 59.9805C31.0758 59.8899 31.2118 59.9352 31.2118 59.8899C31.0758 59.9352 30.9851 59.6632 30.8944 59.7992Z" fill="#DDD0C5"/>
<path fill-rule="evenodd" clip-rule="evenodd" d="M28.2649 61.2501C28.3102 61.1594 28.4916 61.1594 28.4916 61.0234C28.3556 61.0234 28.1742 61.2048 28.2649 61.2501Z" fill="#DDD0C5"/>
<path fill-rule="evenodd" clip-rule="evenodd" d="M13.9385 64.0154C13.7571 63.8794 13.8024 64.1968 13.9385 64.0154V64.0154Z" fill="#DDD0C5"/>
<path fill-rule="evenodd" clip-rule="evenodd" d="M13.6665 64.2422C13.5758 64.2422 13.5304 64.2875 13.4851 64.3329C13.5758 64.3782 13.6211 64.3329 13.6665 64.2422Z" fill="#DDD0C5"/>
<path fill-rule="evenodd" clip-rule="evenodd" d="M15.5706 64.4689L15.5252 64.4236C15.5252 64.4236 15.4799 64.4236 15.4346 64.4689C15.4799 64.5596 15.5252 64.5143 15.5706 64.4689Z" fill="#DDD0C5"/>
<path fill-rule="evenodd" clip-rule="evenodd" d="M11.8076 64.6956C11.7623 64.6956 11.7623 64.7409 11.7623 64.7409C11.8076 64.7409 11.8076 64.7409 11.8076 64.6956Z" fill="#DDD0C5"/>
<path fill-rule="evenodd" clip-rule="evenodd" d="M12.397 64.8317C12.4877 64.7864 12.7144 64.877 12.7144 64.7864C12.6691 64.741 12.4424 64.741 12.397 64.8317Z" fill="#DDD0C5"/>
<path fill-rule="evenodd" clip-rule="evenodd" d="M15.2532 65.285H15.3439V65.1943H15.2532V65.285Z" fill="#DDD0C5"/>
<path fill-rule="evenodd" clip-rule="evenodd" d="M13.8931 65.6025C13.9838 65.6025 13.9385 65.7385 14.0291 65.6931C14.0291 65.6025 13.8931 65.4665 13.8931 65.6025Z" fill="#DDD0C5"/>
<path fill-rule="evenodd" clip-rule="evenodd" d="M14.8906 65.829H14.9812V65.7383H14.8906V65.829Z" fill="#DDD0C5"/>
<path fill-rule="evenodd" clip-rule="evenodd" d="M16.5227 66.0104C16.568 66.0104 16.6133 66.0557 16.704 66.0557C16.704 66.0104 16.6587 66.0104 16.6587 65.9651C16.6133 65.9197 16.5227 65.9651 16.5227 66.0104Z" fill="#DDD0C5"/>
<path fill-rule="evenodd" clip-rule="evenodd" d="M14.5732 66.2371C14.5278 66.4637 14.9359 66.3731 14.7545 66.2371C14.7545 66.3277 14.5732 66.2371 14.5732 66.2371Z" fill="#DDD0C5"/>
<path fill-rule="evenodd" clip-rule="evenodd" d="M15.3892 66.5998C15.2532 66.5545 15.2079 66.6905 15.2079 66.7812C15.3439 66.7812 15.2986 66.6452 15.3892 66.5998Z" fill="#DDD0C5"/>
<path fill-rule="evenodd" clip-rule="evenodd" d="M15.4799 65.3757C15.4799 65.4211 15.2986 65.4664 15.4346 65.5117C15.3892 65.4211 15.6159 65.3757 15.4799 65.3757Z" fill="#DDD0C5"/>
<path fill-rule="evenodd" clip-rule="evenodd" d="M16.024 65.6023C15.888 65.6023 15.8426 65.693 15.7973 65.7383C15.9333 65.7836 15.9333 65.6476 16.024 65.6023Z" fill="#DDD0C5"/>
<path fill-rule="evenodd" clip-rule="evenodd" d="M15.2532 65.8743C15.2532 65.9196 15.0719 65.9649 15.2079 66.0103C15.1626 65.9196 15.3892 65.8743 15.2532 65.8743Z" fill="#DDD0C5"/>
<path fill-rule="evenodd" clip-rule="evenodd" d="M16.4773 67.1437C16.4773 67.0077 16.7947 67.189 16.7494 67.0077C16.6133 66.9623 16.3867 67.0983 16.4773 67.1437Z" fill="#DDD0C5"/>
<path fill-rule="evenodd" clip-rule="evenodd" d="M53.0641 61.25C52.9734 61.25 52.8828 61.25 52.9281 61.3407C53.0188 61.3407 53.0641 61.3407 53.0641 61.25Z" fill="#DDD0C5"/>
<path fill-rule="evenodd" clip-rule="evenodd" d="M49.5732 61.5221C49.2558 61.6581 49.7545 61.4768 49.5732 61.5221V61.5221Z" fill="#DDD0C5"/>
<path fill-rule="evenodd" clip-rule="evenodd" d="M51.2053 61.658C51.2507 61.4313 50.7973 61.658 50.9786 61.7033C50.9786 61.6127 51.16 61.7033 51.2053 61.658Z" fill="#DDD0C5"/>
<path fill-rule="evenodd" clip-rule="evenodd" d="M49.1652 62.6102C49.2105 62.6102 49.2558 62.5649 49.2558 62.4742C49.2558 62.4289 49.2105 62.3835 49.1652 62.3835C49.1652 62.4289 49.1198 62.4289 49.0745 62.4289L49.1198 62.4742L49.0291 62.5196V62.5649L49.1198 62.5196L49.1652 62.6102Z" fill="#DDD0C5"/>
<path fill-rule="evenodd" clip-rule="evenodd" d="M48.8024 63.1541C48.7118 63.1541 48.6664 63.1994 48.6211 63.2447C48.6664 63.3354 48.7571 63.2447 48.8024 63.1541Z" fill="#DDD0C5"/>
<path fill-rule="evenodd" clip-rule="evenodd" d="M49.1652 63.5622C49.3465 63.6982 49.3918 63.3809 49.1652 63.5622V63.5622Z" fill="#DDD0C5"/>
<path fill-rule="evenodd" clip-rule="evenodd" d="M47.3063 63.8796H47.2157V63.9703H47.3063V63.8796Z" fill="#DDD0C5"/>
<path fill-rule="evenodd" clip-rule="evenodd" d="M50.2986 63.9702C50.2532 64.0609 50.0719 64.0609 50.0266 64.1516H50.1172C50.1626 64.1062 50.2532 64.0609 50.2986 63.9702Z" fill="#DDD0C5"/>
<path fill-rule="evenodd" clip-rule="evenodd" d="M46.3996 64.4689C46.4903 64.5596 46.8983 64.4689 46.717 64.2876C46.5809 64.3329 46.5356 64.4689 46.3996 64.4689Z" fill="#DDD0C5"/>
<path fill-rule="evenodd" clip-rule="evenodd" d="M48.2131 64.4236C48.1224 64.4236 48.1677 64.2876 48.1224 64.2876C48.1677 64.4236 48.0317 64.3783 48.0317 64.4689C48.0771 64.4689 48.1677 64.5143 48.2131 64.4236Z" fill="#DDD0C5"/>
<path fill-rule="evenodd" clip-rule="evenodd" d="M48.0771 64.6502C47.9864 64.6502 47.9864 64.5142 47.8957 64.5142C47.8957 64.6048 47.7597 64.6048 47.7597 64.6955C47.8957 64.6502 47.9864 64.7408 48.0771 64.6502Z" fill="#DDD0C5"/>
<path fill-rule="evenodd" clip-rule="evenodd" d="M46.989 64.5596H46.8983C46.8983 64.6049 46.8983 64.7409 46.9437 64.7409C46.9437 64.6956 47.0343 64.6502 47.0343 64.6049C47.0343 64.6049 46.989 64.6049 46.989 64.5596Z" fill="#DDD0C5"/>
<path fill-rule="evenodd" clip-rule="evenodd" d="M48.8478 64.7864C48.8478 64.6957 48.9838 64.741 48.9838 64.6503C48.8478 64.605 48.7118 64.7864 48.8478 64.7864Z" fill="#DDD0C5"/>
<path fill-rule="evenodd" clip-rule="evenodd" d="M47.6237 64.9222C47.8051 64.7862 47.8051 65.1035 47.6237 64.9222V64.9222Z" fill="#DDD0C5"/>
<path fill-rule="evenodd" clip-rule="evenodd" d="M46.3543 65.1944C46.3996 65.1944 46.3996 65.1944 46.3543 65.1944C46.445 65.2397 46.445 65.2397 46.4903 65.2397C46.4903 65.1944 46.4903 65.1491 46.5356 65.1037C46.4449 65.0584 46.3543 65.1037 46.3543 65.1944Z" fill="#DDD0C5"/>
<path fill-rule="evenodd" clip-rule="evenodd" d="M47.8051 65.3758C47.8504 65.3758 47.8504 65.4664 47.8957 65.4664C47.8957 65.4211 47.9411 65.4211 47.9411 65.3304C47.8957 65.3304 47.8504 65.2851 47.8051 65.3758Z" fill="#DDD0C5"/>
<path fill-rule="evenodd" clip-rule="evenodd" d="M50.8426 61.9753H50.7066C50.7066 62.066 50.6613 62.1113 50.7066 62.1113C50.7066 62.0207 50.8426 62.066 50.8426 61.9753Z" fill="#DDD0C5"/>
<path fill-rule="evenodd" clip-rule="evenodd" d="M47.2157 65.6476C47.2157 65.5569 47.397 65.6929 47.3517 65.5116C47.261 65.4662 47.125 65.6022 47.2157 65.6476Z" fill="#DDD0C5"/>
<path fill-rule="evenodd" clip-rule="evenodd" d="M63.8996 32.8692C63.9903 32.7785 63.7636 32.7332 63.7636 32.8238L63.8996 32.8692Z" fill="#DDD0C5"/>
<path fill-rule="evenodd" clip-rule="evenodd" d="M63.4462 33.232C63.5822 33.1867 63.6729 33.368 63.7183 33.232C63.6729 33.1867 63.4462 33.096 63.4462 33.232Z" fill="#DDD0C5"/>
<path fill-rule="evenodd" clip-rule="evenodd" d="M66.8465 34.0933C66.9825 34.048 66.9825 34.184 67.1185 34.1386C67.0732 34.0026 67.2092 34.048 67.2092 33.9573C67.1185 33.912 67.0732 33.8213 66.8918 33.8213C66.9372 33.9573 66.8465 33.9573 66.8465 34.0933Z" fill="#DDD0C5"/>
<path fill-rule="evenodd" clip-rule="evenodd" d="M64.1263 33.912V34.0026C64.1716 34.0026 64.1716 34.048 64.217 34.048C64.217 33.9573 64.217 33.8666 64.1263 33.912Z" fill="#DDD0C5"/>
<path fill-rule="evenodd" clip-rule="evenodd" d="M66.7105 34.184C66.7105 34.1387 66.8012 34.0027 66.7105 34.0027C66.7105 34.0027 66.6198 34.184 66.7105 34.184Z" fill="#DDD0C5"/>
<path fill-rule="evenodd" clip-rule="evenodd" d="M66.1211 34.6827C66.1211 34.728 66.1211 34.7734 66.1664 34.7734C66.2118 34.7734 66.2118 34.5014 66.1211 34.6827Z" fill="#DDD0C5"/>
<path fill-rule="evenodd" clip-rule="evenodd" d="M61.3608 35.0907C61.3154 35.0907 61.3154 35.0907 61.2701 35.0454V35.1361C61.3154 35.1361 61.4061 35.1361 61.3608 35.0907Z" fill="#DDD0C5"/>
<path fill-rule="evenodd" clip-rule="evenodd" d="M66.5745 35.3173C66.6198 35.408 66.8919 35.2267 66.7558 35.136C66.7105 35.2267 66.6198 35.2267 66.5745 35.3173Z" fill="#DDD0C5"/>
<path fill-rule="evenodd" clip-rule="evenodd" d="M66.3478 35.3627C66.5291 35.2267 66.5745 35.4988 66.3478 35.3627V35.3627Z" fill="#DDD0C5"/>
<path fill-rule="evenodd" clip-rule="evenodd" d="M61.7234 35.5893C61.8595 35.5893 61.9048 35.4986 61.9501 35.408C61.8141 35.408 61.8141 35.544 61.7234 35.5893Z" fill="#DDD0C5"/>
<path fill-rule="evenodd" clip-rule="evenodd" d="M64.8063 35.408H64.7157V35.4986H64.8063V35.408Z" fill="#DDD0C5"/>
<path fill-rule="evenodd" clip-rule="evenodd" d="M66.4385 35.7254C66.5292 35.8161 66.6652 35.6801 66.7105 35.6347C66.6198 35.5441 66.5292 35.6801 66.4385 35.7254Z" fill="#DDD0C5"/>
<path fill-rule="evenodd" clip-rule="evenodd" d="M63.8996 36.0426C63.8996 35.9066 64.081 36.1787 64.1263 35.9973C64.081 35.952 63.7183 35.952 63.8996 36.0426Z" fill="#DDD0C5"/>
<path fill-rule="evenodd" clip-rule="evenodd" d="M65.8491 36.0881C65.8491 36.0428 65.9398 35.9974 65.9398 35.9521C65.8491 35.9068 65.7584 36.0881 65.8491 36.0881Z" fill="#DDD0C5"/>
<path fill-rule="evenodd" clip-rule="evenodd" d="M64.4436 36.0428C64.1263 35.9974 64.353 36.2241 64.4436 36.0428V36.0428Z" fill="#DDD0C5"/>
<path fill-rule="evenodd" clip-rule="evenodd" d="M62.6302 36.1787C62.3582 36.3147 62.7662 36.3147 62.6302 36.1787V36.1787Z" fill="#DDD0C5"/>
<path fill-rule="evenodd" clip-rule="evenodd" d="M62.7662 36.8135C62.7208 36.7229 62.7662 36.5868 62.6755 36.5415C62.6302 36.6775 62.5848 36.7229 62.7662 36.8135Z" fill="#DDD0C5"/>
<path fill-rule="evenodd" clip-rule="evenodd" d="M65.0784 36.5868C65.2597 36.4055 65.3051 36.6775 65.0784 36.5868V36.5868Z" fill="#DDD0C5"/>
<path fill-rule="evenodd" clip-rule="evenodd" d="M64.8064 36.8135C64.7157 36.8135 64.6703 36.8588 64.6703 36.9042C64.761 36.9042 64.761 36.8588 64.8064 36.8135Z" fill="#DDD0C5"/>
<path fill-rule="evenodd" clip-rule="evenodd" d="M65.1237 36.9949C65.0784 37.0402 64.897 36.9495 64.897 37.0402C64.9424 36.9949 65.1237 37.0855 65.1237 36.9949Z" fill="#DDD0C5"/>
<path fill-rule="evenodd" clip-rule="evenodd" d="M62.6755 37.3121C62.7209 37.4028 62.9476 37.2668 62.8115 37.2214C62.8115 37.2668 62.6755 37.2214 62.6755 37.3121Z" fill="#DDD0C5"/>
<path fill-rule="evenodd" clip-rule="evenodd" d="M65.3504 37.8109C65.305 37.6749 65.4864 37.7202 65.4864 37.6295C65.305 37.5842 65.169 37.7655 65.3504 37.8109Z" fill="#DDD0C5"/>
<path fill-rule="evenodd" clip-rule="evenodd" d="M65.7584 37.9015C65.4864 37.8562 65.6677 38.0375 65.7584 37.9015V37.9015Z" fill="#DDD0C5"/>
<path fill-rule="evenodd" clip-rule="evenodd" d="M65.4411 39.443C65.5317 39.443 65.5771 39.3976 65.5771 39.3523C65.4864 39.3976 65.4411 39.3523 65.4411 39.443Z" fill="#DDD0C5"/>
<path fill-rule="evenodd" clip-rule="evenodd" d="M63.7183 39.8058C63.7636 39.6698 63.4916 39.7151 63.4462 39.8058C63.4462 39.8058 63.4916 39.8058 63.4916 39.8512C63.5369 39.7605 63.6276 39.8058 63.7183 39.8058Z" fill="#DDD0C5"/>
<path fill-rule="evenodd" clip-rule="evenodd" d="M66.5745 40.1684H66.6652C66.6652 40.1231 66.7105 40.0324 66.7105 39.9871C66.6652 40.0324 66.5745 40.0324 66.5745 40.1684Z" fill="#DDD0C5"/>
<path fill-rule="evenodd" clip-rule="evenodd" d="M66.1664 40.3498C66.3025 40.3952 66.3025 40.3498 66.3931 40.3952C66.4838 40.2591 66.1664 40.2591 66.1664 40.3498Z" fill="#DDD0C5"/>
<path fill-rule="evenodd" clip-rule="evenodd" d="M67.0278 34.9094C67.0732 34.8641 67.3905 34.8641 67.2092 34.7734C67.2092 34.8641 66.8918 34.8641 67.0278 34.9094Z" fill="#DDD0C5"/>
<path fill-rule="evenodd" clip-rule="evenodd" d="M61.5421 36.9947C61.3154 37.04 61.7688 37.04 61.7235 36.904C61.5874 36.8134 61.6328 36.9494 61.5421 36.9947Z" fill="#DDD0C5"/>
<path fill-rule="evenodd" clip-rule="evenodd" d="M64.0356 37.4027C64.1263 37.3574 64.3983 37.4934 64.2623 37.4027C64.217 37.3121 64.0356 37.2667 64.0356 37.4027Z" fill="#DDD0C5"/>
<path fill-rule="evenodd" clip-rule="evenodd" d="M65.6224 37.5843C65.6677 37.4936 65.4864 37.4029 65.4864 37.4936C65.5771 37.4936 65.5317 37.5843 65.6224 37.5843Z" fill="#DDD0C5"/>
<path fill-rule="evenodd" clip-rule="evenodd" d="M65.169 37.9016C65.169 37.9923 64.897 38.0376 64.9877 38.083C65.033 38.0376 65.305 37.9923 65.169 37.9016Z" fill="#DDD0C5"/>
<path fill-rule="evenodd" clip-rule="evenodd" d="M65.169 38.4003C65.169 38.3097 65.3051 38.3097 65.3051 38.219H65.2144C65.169 38.219 65.0784 38.4457 65.169 38.4003Z" fill="#DDD0C5"/>
<path fill-rule="evenodd" clip-rule="evenodd" d="M66.3025 40.1685C66.2118 39.9872 66.5292 39.8965 66.3025 40.1685V40.1685Z" fill="#DDD0C5"/>
<path fill-rule="evenodd" clip-rule="evenodd" d="M60.2273 39.6697C60.1367 39.6697 60.0006 39.6697 60.0006 39.7603C60.1367 39.7603 60.2273 39.7604 60.2273 39.6697Z" fill="#DDD0C5"/>
<path fill-rule="evenodd" clip-rule="evenodd" d="M60.2727 40.1684C60.0006 40.123 60.182 40.3044 60.2727 40.1684V40.1684Z" fill="#DDD0C5"/>
<path fill-rule="evenodd" clip-rule="evenodd" d="M61.5421 40.3497H61.6781C61.6781 40.3044 61.6328 40.259 61.6328 40.259C61.5874 40.259 61.5421 40.3044 61.5421 40.3497Z" fill="#DDD0C5"/>
<path fill-rule="evenodd" clip-rule="evenodd" d="M61.7688 40.4857C61.7688 40.4404 61.7234 40.4404 61.7234 40.395C61.7234 40.4404 61.7235 40.4857 61.7688 40.4857Z" fill="#DDD0C5"/>
<path fill-rule="evenodd" clip-rule="evenodd" d="M61.4514 40.3499C61.4968 40.4859 61.3607 40.4405 61.3607 40.5312C61.5421 40.6219 61.6328 40.3952 61.4514 40.3499Z" fill="#DDD0C5"/>
<path fill-rule="evenodd" clip-rule="evenodd" d="M58.9126 40.4404H58.8672C58.8672 40.4858 58.8672 40.4858 58.8219 40.5311C58.8672 40.5311 58.9126 40.4858 58.9126 40.4404Z" fill="#DDD0C5"/>
<path fill-rule="evenodd" clip-rule="evenodd" d="M60.2273 40.5764C60.0913 40.5764 60.0913 40.7124 60.046 40.7578C60.182 40.8031 60.182 40.6671 60.2273 40.5764Z" fill="#DDD0C5"/>
<path fill-rule="evenodd" clip-rule="evenodd" d="M60.4994 40.8031C60.454 40.8031 60.454 40.7578 60.3633 40.7578V40.8938H60.454C60.454 40.8938 60.4994 40.8485 60.4994 40.8031Z" fill="#DDD0C5"/>
<path fill-rule="evenodd" clip-rule="evenodd" d="M59.638 41.0297C59.774 41.1204 59.9553 41.0297 60.0007 40.939C59.8193 40.8937 59.6833 40.7577 59.638 41.0297Z" fill="#DDD0C5"/>
<path fill-rule="evenodd" clip-rule="evenodd" d="M61.6781 40.8937C61.4061 40.803 61.5421 41.1204 61.6781 40.8937V40.8937Z" fill="#DDD0C5"/>
<path fill-rule="evenodd" clip-rule="evenodd" d="M60.9074 41.0751C60.9074 41.1205 60.9074 41.1205 60.8621 41.1205V41.2111C60.9981 41.2565 60.9981 41.0298 60.9074 41.0751Z" fill="#DDD0C5"/>
<path fill-rule="evenodd" clip-rule="evenodd" d="M59.1393 41.1659C59.2299 41.3925 59.2753 40.9845 59.1393 41.1659V41.1659Z" fill="#DDD0C5"/>
<path fill-rule="evenodd" clip-rule="evenodd" d="M60.2273 41.211V41.347C60.3633 41.3924 60.3633 41.1203 60.2273 41.211Z" fill="#DDD0C5"/>
<path fill-rule="evenodd" clip-rule="evenodd" d="M59.0939 41.5737C58.9579 41.7551 59.2752 41.7551 59.0939 41.5737V41.5737Z" fill="#DDD0C5"/>
<path fill-rule="evenodd" clip-rule="evenodd" d="M60.0913 41.7552C60.182 41.7552 60.2273 41.8459 60.3633 41.8006C60.3633 41.7552 60.3633 41.6646 60.318 41.6646C60.3633 41.8006 60.0913 41.6192 60.0913 41.7552Z" fill="#DDD0C5"/>
<path fill-rule="evenodd" clip-rule="evenodd" d="M60.8621 42.4353C60.8621 42.3446 60.8621 42.2539 60.7714 42.2539C60.726 42.2992 60.726 42.4353 60.8621 42.4353Z" fill="#DDD0C5"/>
<path d="M56.147 50.6412C56.4644 50.5958 56.3284 50.1425 56.1017 50.4145C56.147 50.4598 56.0563 50.5958 56.147 50.6412Z" fill="#A59B95"/>
<path d="M52.0667 57.3965C51.9307 57.5778 51.9307 57.7138 52.0214 57.8045C52.2027 57.7592 52.2934 57.5325 52.0667 57.3965Z" fill="#A59B95"/>
<path d="M57.6885 48.2383C57.2804 48.3743 57.8245 48.6463 57.6885 48.2383V48.2383Z" fill="#A59B95"/>
<path d="M58.0512 47.8303C57.8698 47.921 57.6885 47.9663 57.8245 48.193C57.8245 48.057 58.2325 48.057 58.0512 47.8303Z" fill="#A59B95"/>
<path d="M60.3633 43.6592C60.6807 43.7499 60.318 44.0219 60.59 44.1126C60.6354 44.0219 60.726 43.9766 60.8167 43.9313C60.6354 43.8859 60.5447 43.5232 60.3633 43.6592Z" fill="#A59B95"/>
<path d="M59.0939 45.9263C59.0486 46.0623 58.9126 46.1983 59.0032 46.289C59.1393 46.2436 59.2299 46.0623 59.0939 45.9263Z" fill="#A59B95"/>
<path d="M51.7947 58.5297C51.84 58.3937 51.976 58.2577 51.8854 58.167C51.7494 58.2123 51.6587 58.3937 51.7947 58.5297Z" fill="#A59B95"/>
<path d="M62.8569 39.8512C62.9022 39.9872 63.1289 40.1232 63.2649 39.8965C63.0836 39.7605 62.9475 39.7152 62.8569 39.8512Z" fill="#A59B95"/>
<path d="M56.8271 50.2332C56.7817 50.3238 56.6457 50.2785 56.6004 50.4145C56.7364 50.5052 56.8271 50.7319 57.0538 50.6865C56.8271 50.5505 57.0084 50.3692 56.8271 50.2332Z" fill="#A59B95"/>
<path d="M62.9022 40.123C62.8115 40.3044 62.7662 40.4857 62.9022 40.6671C63.0835 40.3951 63.1742 40.2137 62.9022 40.123Z" fill="#A59B95"/>
<path d="M59.7286 45.6995C59.2752 45.8808 59.8646 46.0622 59.7286 45.6995V45.6995Z" fill="#A59B95"/>
<path d="M66.0758 35.7253C65.9851 35.8614 65.8038 35.68 65.7584 35.952C65.8038 36.1334 66.0304 36.224 66.2571 36.3601C66.4385 36.088 66.1211 35.952 66.0758 35.7253Z" fill="#A59B95"/>
<path d="M66.3025 35.2268C66.3932 35.2268 66.7105 34.9094 66.5745 34.7734C66.5292 35.0001 66.1211 35.0001 66.3025 35.2268Z" fill="#A59B95"/>
<path d="M60.6354 44.8834C60.8167 44.8381 60.9074 44.6568 60.726 44.5208C60.726 44.6568 60.5447 44.8381 60.6354 44.8834Z" fill="#A59B95"/>
<path d="M60.59 45.3821C60.454 44.9287 60.9981 45.1101 60.59 45.3821V45.3821Z" fill="#A59B95"/>
<path d="M64.2623 39.443C64.217 39.3976 64.1717 39.3976 64.1263 39.3523C64.081 39.3976 64.081 39.443 64.0356 39.4883C64.081 39.5336 64.1263 39.5336 64.1717 39.579C64.217 39.5336 64.217 39.4883 64.2623 39.443Z" fill="#A59B95"/>
<path d="M53.1094 57.9404C53.1094 58.1218 52.8828 58.3485 52.9734 58.4845C53.1094 58.4845 53.2001 58.3938 53.2455 58.3031C53.2908 58.2578 53.3361 58.1671 53.3361 58.1218H53.2001C53.2001 58.0764 53.1548 57.9858 53.1094 57.9404Z" fill="#A59B95"/>
<path d="M58.5952 49.009C58.4592 49.0544 58.3685 49.145 58.2779 49.3264C58.4139 49.4171 58.5499 49.4624 58.6859 49.5531C58.7312 49.3717 58.8672 49.145 58.5952 49.009Z" fill="#A59B95"/>
<path d="M59.5926 47.7396C59.6833 47.6036 60.0913 47.4222 59.91 47.1956C59.6833 47.2862 59.4113 47.4676 59.5926 47.7396Z" fill="#A59B95"/>
<path d="M67.3905 33.7306V33.5039C67.3452 33.5492 67.2999 33.6399 67.3452 33.7306H67.3905Z" fill="#A59B95"/>
<path d="M55.2403 55.4468C54.8323 55.6281 55.331 55.9455 55.2403 55.4468V55.4468Z" fill="#A59B95"/>
<path d="M61.7235 44.5208C61.5875 44.7474 61.8595 45.0195 61.9955 44.7928C61.8595 44.7021 61.7688 44.6114 61.7235 44.5208Z" fill="#A59B95"/>
<path d="M66.8012 33.4133C66.7105 33.5947 66.9825 33.8214 66.9825 33.5947C66.8465 33.5947 66.8918 33.4133 66.8012 33.4133Z" fill="#A59B95"/>
<path d="M56.419 53.4521C56.555 53.5427 56.7364 53.6334 56.8724 53.7241C57.1444 53.4067 56.6004 53.3161 56.419 53.4521Z" fill="#A59B95"/>
<path d="M66.7558 36.3601C66.5745 36.5868 66.8012 36.6775 66.8918 36.8588C66.9825 36.6321 66.9372 36.4961 66.7558 36.3601Z" fill="#A59B95"/>
<path d="M58.0965 51.4119C58.0058 51.3666 57.9605 51.3212 57.8698 51.2759C57.7791 51.4119 57.7338 51.5026 57.7791 51.6386C57.9151 51.8653 58.0058 51.5479 58.0965 51.4119Z" fill="#A59B95"/>
<path d="M65.441 39.0804C65.5771 39.035 65.6224 38.9444 65.4864 38.8083C65.4411 38.899 65.3504 38.9444 65.2597 38.9897C65.305 39.035 65.3504 39.0804 65.441 39.0804Z" fill="#A59B95"/>
<path d="M65.2597 33.8211C64.8063 33.5944 64.9424 34.1838 65.2597 33.8211V33.8211Z" fill="#A59B95"/>
<path d="M58.6405 50.5051C58.5045 50.6865 58.5952 50.8225 58.8219 50.9132C58.9579 50.7318 58.7765 50.6411 58.6405 50.5051Z" fill="#A59B95"/>
<path d="M61.9501 45.0648C62.0861 45.2462 61.8595 45.5182 62.0861 45.6995C62.3582 45.6542 62.2675 44.9288 61.9501 45.0648Z" fill="#A59B95"/>
<path d="M55.9203 55.5376C55.7843 55.7189 55.875 55.855 56.1017 55.9456C56.2377 55.7643 56.0564 55.6736 55.9203 55.5376Z" fill="#A59B95"/>
<path d="M61.2701 46.833C60.862 47.0144 61.3608 47.377 61.2701 46.833V46.833Z" fill="#A59B95"/>
<path d="M60.1367 48.6917C59.91 48.9183 60.046 49.1904 59.8193 49.2357C60.0913 49.3717 60.4994 48.873 60.1367 48.6917Z" fill="#A59B95"/>
<path d="M63.5823 43.3419C63.5369 43.2966 63.4916 43.2966 63.4463 43.2512C63.4009 43.3419 63.3556 43.3872 63.3102 43.4779C63.3556 43.5232 63.4009 43.5232 63.4463 43.5686C63.4916 43.4779 63.5369 43.4326 63.5823 43.3419Z" fill="#A59B95"/>
<path d="M56.7364 55.0842C56.6911 55.0388 56.6457 55.0388 56.6911 54.9482C56.6004 54.9028 56.5097 54.8575 56.4644 54.9935C56.5551 55.0842 56.6457 55.1748 56.7364 55.0842Z" fill="#A59B95"/>
<path d="M55.4216 57.4417C55.3763 57.7137 55.2403 57.9857 55.2856 58.2124C55.3763 57.895 55.603 57.9857 55.6936 57.7137C55.5123 57.623 55.4216 57.5323 55.4216 57.4417Z" fill="#A59B95"/>
<path d="M60.1367 49.5984C60.0913 49.7344 59.8193 49.9157 60.0913 50.0064C60.2273 49.8704 60.2727 49.7344 60.1367 49.5984Z" fill="#A59B95"/>
<path d="M55.9203 56.7163C55.875 56.807 55.8297 56.8523 55.7843 56.943C55.8297 56.9883 55.875 56.9883 55.9203 57.0337C55.9657 56.943 56.011 56.8977 56.0563 56.807C56.0563 56.7616 56.011 56.7616 55.9203 56.7163Z" fill="#A59B95"/>
<path d="M58.7312 52.228C58.3685 52.4547 58.7766 52.8627 58.7312 52.228V52.228Z" fill="#A59B95"/>
<path d="M65.4864 41.2564C65.5771 41.0751 65.7131 40.8937 65.8491 40.8484C65.6224 40.6671 65.2597 41.0751 65.4864 41.2564Z" fill="#A59B95"/>
<path d="M63.9903 35.4987C64.2623 35.4987 64.353 35.3173 64.4437 35.136C64.217 35.1813 64.0356 35.272 63.9903 35.4987Z" fill="#A59B95"/>
<path d="M64.897 35.2719C64.8064 35.3626 64.897 35.68 65.033 35.816C65.0784 35.7706 65.2144 35.1812 64.897 35.2719Z" fill="#A59B95"/>
<path d="M66.1211 41.9365C66.0304 42.1179 65.9398 42.3446 65.9851 42.4806C65.9851 42.3899 66.0758 42.2992 66.1665 42.2085C66.1665 42.1632 66.2118 42.0725 66.2118 42.0272C66.2118 41.9819 66.2118 41.9365 66.1211 41.9365Z" fill="#A59B95"/>
<path d="M64.6703 36.1334C64.7157 36.1334 65.033 36.3601 65.033 36.1334C64.8517 36.1787 64.7157 35.8614 64.6703 36.1334Z" fill="#A59B95"/>
<path d="M56.2377 58.9831C56.1924 58.4844 56.6457 58.8471 56.2377 58.9831V58.9831Z" fill="#A59B95"/>
<path d="M61.7688 50.5959C61.8595 50.5959 62.1768 50.3238 61.9955 50.2332C61.9501 50.3692 61.5421 50.4145 61.7688 50.5959Z" fill="#A59B95"/>
<path d="M62.2222 49.9612C62.2675 50.0065 62.3128 50.0065 62.3582 50.0518C62.4035 49.9612 62.4942 49.8252 62.5395 49.7345C62.4942 49.6891 62.4488 49.6891 62.4035 49.6438C62.3582 49.7345 62.3128 49.8252 62.2222 49.9612Z" fill="#A59B95"/>
<path d="M59.5926 54.8574C59.6833 54.8574 60.046 54.5401 59.8646 54.4041C59.7286 54.4041 59.3659 54.6307 59.5926 54.8574Z" fill="#A59B95"/>
<path d="M62.6302 49.4625C62.7662 49.7345 63.0382 49.2811 62.9022 49.1904C62.8115 49.3264 62.7209 49.4171 62.6302 49.4625Z" fill="#A59B95"/>
<path d="M58.1872 42.3445C58.2325 42.5258 58.0965 42.5258 58.0965 42.7072C58.3685 42.8432 58.3685 42.2992 58.1872 42.3445Z" fill="#A59B95"/>
<path d="M63.4009 42.5713C63.4009 42.7073 63.4009 42.8433 63.3102 42.934C63.5369 42.934 63.7636 42.934 63.7636 42.7526C63.5369 42.798 63.5823 42.5259 63.4009 42.5713Z" fill="#A59B95"/>
<path d="M62.6755 43.3873C62.8569 43.4326 62.9022 43.5686 63.1289 43.5233C63.1742 43.3419 62.6755 43.2513 62.6755 43.3873Z" fill="#A59B95"/>
<path d="M62.5848 43.478C62.5395 43.6594 62.1315 43.5234 62.0408 43.7047C62.0408 43.8407 62.0861 43.8861 62.1315 43.9767C62.3582 43.9314 62.8569 43.7047 62.5848 43.478Z" fill="#A59B95"/>
<path d="M63.7636 43.7046C63.3556 43.4326 63.5369 44.022 63.7636 43.7046V43.7046Z" fill="#A59B95"/>
<path d="M53.8348 44.6113C53.8802 44.43 54.2882 44.2486 53.8802 44.158C53.9255 44.294 53.5628 44.566 53.8348 44.6113Z" fill="#A59B95"/>
<path d="M59.3206 44.6569C59.3659 44.7929 59.3206 44.9742 59.4113 45.0195C59.4566 44.7929 59.7286 44.7929 59.7286 44.5662C59.5019 44.5208 59.5473 44.7022 59.3206 44.6569Z" fill="#A59B95"/>
<path d="M54.4242 33.0958C54.6509 32.8692 54.1069 32.8692 54.1522 33.0052C54.1522 33.0052 54.4696 33.0505 54.4242 33.0958Z" fill="#A59B95"/>
<path d="M55.5123 33.0052C55.467 32.9598 55.1496 32.7785 55.1496 33.0052C55.2856 32.9598 55.467 33.2772 55.5123 33.0052Z" fill="#A59B95"/>
<path d="M57.7791 33.4586C57.6431 33.3679 57.5071 33.4132 57.4164 33.5492C57.6431 33.5492 57.6885 33.7306 57.7791 33.4586Z" fill="#A59B95"/>
<path d="M58.6405 45.3821C58.6405 45.4728 58.5499 45.4728 58.5499 45.5634C58.7312 45.5634 58.6859 45.7901 58.9126 45.7448C58.9126 45.5181 58.7312 45.4728 58.6405 45.3821Z" fill="#A59B95"/>
<path d="M64.3983 33.1411C64.3983 33.3225 64.489 33.4131 64.6703 33.4131C64.6703 33.2318 64.5797 33.1411 64.3983 33.1411Z" fill="#A59B95"/>
<path d="M59.2753 46.2435C59.3659 46.0168 59.6833 45.8808 59.3206 45.6995C59.5019 46.0168 59.0032 46.1075 59.2753 46.2435Z" fill="#A59B95"/>
<path d="M61.0434 45.9261C60.9527 45.9261 60.8167 45.9261 60.862 45.7447C60.9527 45.6994 61.0434 45.7447 61.0434 45.6541H60.7714C60.8167 45.8354 60.6807 45.8354 60.6807 46.0167C60.862 46.0167 61.0434 46.0167 61.0434 45.9261Z" fill="#A59B95"/>
<path d="M64.081 45.5181C64.081 45.6541 63.8543 45.6087 63.8996 45.7901C64.1263 45.8354 64.3076 45.5181 64.081 45.5181Z" fill="#A59B95"/>
<path d="M57.5525 46.0622C57.7338 46.0169 58.0058 46.1529 57.9152 45.8809C57.7338 45.8809 57.5978 45.9262 57.5525 46.0622Z" fill="#A59B95"/>
<path d="M60.0006 45.79C60.0006 46.0621 60.2273 46.1074 60.454 46.1527C60.454 46.0167 60.59 45.9714 60.5447 45.79C60.2727 45.8354 60.2273 45.8354 60.0006 45.79Z" fill="#A59B95"/>
<path d="M57.9605 46.4249C58.0965 46.3796 58.4139 46.5156 58.4139 46.3342C58.2779 46.3796 57.9152 46.1982 57.9605 46.4249Z" fill="#A59B95"/>
<path d="M54.3789 46.5608C53.9255 46.8328 54.6962 46.7875 54.3789 46.5608V46.5608Z" fill="#A59B95"/>
<path d="M55.0136 46.5608C55.0136 46.7421 54.7416 46.6515 54.7416 46.8328C54.8776 46.8328 55.2403 46.6515 55.0136 46.5608Z" fill="#A59B95"/>
<path d="M62.5849 46.1982H62.2222V46.3796H62.5849C62.6302 46.3342 62.5849 46.2436 62.5849 46.1982Z" fill="#A59B95"/>
<path d="M67.1185 34.2745H67.2092C67.1639 34.3199 67.1639 34.4105 67.2545 34.4105C67.2999 34.3652 67.2999 34.3199 67.3905 34.3652V34.0479C67.2092 34.0932 67.0732 34.0932 67.1185 34.2745Z" fill="#A59B95"/>
<path d="M58.6859 47.1955C58.9579 47.1048 59.2299 47.0595 59.2753 46.7874C59.1393 46.7874 59.0939 46.7421 59.0032 46.6968C59.0032 46.9235 58.6859 46.9235 58.6859 47.1955Z" fill="#A59B95"/>
<path d="M62.9475 34.9546C63.0382 35.0453 63.2649 35.136 63.3556 35.0906C63.4462 35.3626 63.8543 35.5893 63.8996 35.272C63.6276 35.3173 63.6729 35.0453 63.4462 35C63.4916 34.9546 63.4916 34.9093 63.4916 34.8186C63.3102 34.8639 62.9475 34.7279 62.9475 34.9546Z" fill="#A59B95"/>
<path d="M58.0512 47.2409C58.0512 47.6035 58.5045 47.2862 58.5952 47.1955C58.3232 47.2862 58.2325 47.0595 58.0512 47.2409Z" fill="#A59B95"/>
<path d="M57.0537 35.5893H57.2351C57.3711 35.3626 56.9177 35.3173 56.9631 35.4986C57.0084 35.4986 57.0537 35.4986 57.0537 35.5893Z" fill="#A59B95"/>
<path d="M56.5097 48.0116C56.6457 47.9663 56.9631 48.1023 56.9631 47.9209C56.8271 47.7849 56.5097 47.7849 56.5097 48.0116Z" fill="#A59B95"/>
<path d="M58.0512 36.1334C57.8698 36.1787 57.8245 36.0427 57.6885 36.0427C57.5524 36.3601 58.0965 36.3147 58.0512 36.1334Z" fill="#A59B95"/>
<path d="M63.7636 47.8757V48.1478H63.945C63.9903 48.1478 64.0356 48.1478 64.0356 48.0571C63.8996 48.0117 63.8543 47.8757 63.7636 47.8757Z" fill="#A59B95"/>
<path d="M54.4695 36.3147C54.3335 36.3601 54.0162 36.2241 54.0162 36.4054C54.1522 36.3601 54.5149 36.4961 54.4695 36.3147Z" fill="#A59B95"/>
<path d="M61.7234 36.2695H61.9048V36.0881H61.7234V36.2695Z" fill="#A59B95"/>
<path d="M43.8154 56.0364C43.8608 56.2631 43.5434 56.1271 43.5434 56.3084C43.8154 56.4444 44.0874 56.1271 43.8154 56.0364Z" fill="#A59B95"/>
<path d="M58.8219 36.5868C59.0032 36.3601 58.5045 36.3601 58.5499 36.4961C58.5045 36.4961 58.8219 36.5415 58.8219 36.5868Z" fill="#A59B95"/>
<path d="M60.726 48.5557C60.7714 48.6917 60.6354 49.009 60.9074 48.9184C60.9527 48.6917 60.9074 48.5557 60.726 48.5557Z" fill="#A59B95"/>
<path d="M62.6302 48.5558C62.7209 48.5558 62.8569 48.6918 62.9022 48.5558C62.7662 48.5104 62.6755 48.3744 62.6302 48.5558Z" fill="#A59B95"/>
<path d="M63.4462 48.4197V48.601H63.8089V48.4197H63.4462Z" fill="#A59B95"/>
<path d="M55.2856 49.0544C55.2856 49.2358 55.0136 49.1451 55.0136 49.3265C55.2856 49.4171 55.5123 49.1451 55.2856 49.0544Z" fill="#A59B95"/>
<path d="M57.9152 37.2215C58.1872 37.0855 58.3685 37.4482 58.4592 37.1761L58.4139 37.1308C58.4139 37.0855 58.4592 37.0401 58.4592 37.0401C58.4139 36.9948 58.3685 36.9948 58.2779 36.9495C58.2325 36.9948 58.2325 37.0401 58.2325 37.0855C58.0965 37.1308 57.9605 37.1308 57.9152 37.2215Z" fill="#A59B95"/>
<path d="M59.3206 49.4171C59.5473 49.3718 59.6833 49.4171 59.774 49.5078C59.8193 49.1905 59.3659 49.1451 59.3206 49.4171Z" fill="#A59B95"/>
<path d="M52.7921 38.1282C53.1095 37.7655 53.2455 38.3549 52.7921 38.1282V38.1282Z" fill="#A59B95"/>
<path d="M52.1574 38.4002C52.1574 38.3095 52.2934 38.1735 52.1574 38.1282C52.1574 38.2642 51.976 38.3549 52.1574 38.4002Z" fill="#A59B95"/>
<path d="M35.7455 58.0312C35.1561 57.7591 35.3828 58.3032 35.7455 58.0312V58.0312Z" fill="#A59B95"/>
<path d="M38.1483 58.2125C38.1936 57.8951 37.831 58.0764 37.7856 57.9404C37.7856 58.1671 37.967 58.1671 38.1483 58.2125Z" fill="#A59B95"/>
<path d="M39.7804 58.3938C39.5538 58.4391 39.3271 58.0311 39.1457 58.3484C39.3271 58.3484 39.6444 58.6204 39.7804 58.3938Z" fill="#A59B95"/>
<path d="M64.8063 38.0829C64.897 38.3549 64.7157 38.4002 64.761 38.6269C65.033 38.5362 65.033 38.7629 65.3051 38.6722C65.2144 38.4456 65.4864 38.4909 65.4864 38.3095C65.2144 38.2642 65.1237 38.0375 64.8063 38.0829Z" fill="#A59B95"/>
<path d="M38.4657 58.7111C38.6017 58.5751 38.5563 58.3484 38.375 58.3484C38.375 58.4844 38.3297 58.7111 38.4657 58.7111Z" fill="#A59B95"/>
<path d="M59.3206 38.5362V38.7175C59.4113 38.7175 59.4113 38.7628 59.5019 38.8082C59.5019 38.6722 59.5473 38.4908 59.3206 38.5362Z" fill="#A59B95"/>
<path d="M64.489 38.8537C64.489 38.8083 64.7157 38.491 64.489 38.491C64.4436 38.5363 64.2623 38.8537 64.489 38.8537Z" fill="#A59B95"/>
<path d="M43.3167 58.7564C43.3167 58.7564 43.6341 58.8017 43.5887 58.8471C43.7701 58.6204 43.2714 58.6204 43.3167 58.7564Z" fill="#A59B95"/>
<path d="M44.7221 58.7111C44.7675 58.7111 44.8128 58.7111 44.8128 58.8018H44.9942C45.1302 58.5298 44.6768 58.5298 44.7221 58.7111Z" fill="#A59B95"/>
<path d="M54.0162 39.3977C53.8802 39.3977 53.6988 39.3977 53.7442 39.579C53.8802 39.579 53.9708 39.5337 54.0162 39.3977Z" fill="#A59B95"/>
<path d="M34.3853 59.7993C34.3853 59.89 34.2947 59.8447 34.204 59.7993C34.068 60.2073 34.748 59.89 34.3853 59.7993Z" fill="#A59B95"/>
<path d="M45.9462 59.7085C45.5382 59.5725 45.3568 59.8445 45.2662 60.2072C45.5382 60.0712 45.9916 60.1165 45.9462 59.7085Z" fill="#A59B95"/>
<path d="M37.8763 60.2979C38.0123 60.0259 37.4229 60.0712 37.4229 60.2526C37.5589 60.2979 37.6949 60.2979 37.8763 60.2979Z" fill="#A59B95"/>
<path d="M65.9398 39.987C65.8944 39.9417 65.9398 39.851 65.8944 39.7603C65.6224 40.259 65.6224 39.443 65.3504 39.8057C65.5771 39.8964 65.7131 40.259 65.9398 40.0324C66.0305 40.0777 66.3931 40.123 66.4838 39.8964C66.3478 39.851 65.9851 39.8964 65.9398 39.987Z" fill="#A59B95"/>
<path d="M36.4708 60.6153C36.6975 60.6153 36.6975 60.4339 36.6975 60.2526C36.4708 60.2073 36.4255 60.3886 36.4708 60.6153Z" fill="#A59B95"/>
<path d="M41.5939 60.7512C41.3219 60.4338 41.7752 60.1618 41.5939 60.7512V60.7512Z" fill="#A59B95"/>
<path d="M42.3193 60.6154C42.546 60.2527 42.6367 60.8874 42.3193 60.6154V60.6154Z" fill="#A59B95"/>
<path d="M54.0616 41.1205C53.9255 41.1205 53.9255 41.0298 53.7895 41.0298C53.6535 41.2565 54.1069 41.3018 54.0616 41.1205Z" fill="#A59B95"/>
<path d="M40.9139 61.1139H41.0952C41.1406 61.1139 41.1859 61.1139 41.1859 61.0232C40.9139 60.9779 41.3219 60.8872 41.2766 60.7512C41.0046 60.7966 40.9139 60.8872 40.9139 61.1139Z" fill="#A59B95"/>
<path d="M64.625 40.7123C64.625 40.7577 64.5797 40.7577 64.5797 40.803V40.667C64.489 40.8483 64.3077 40.6217 64.217 40.7577C64.2623 40.803 64.3077 40.8937 64.353 40.9844C64.353 41.0297 64.3077 41.0297 64.3077 41.075C64.353 41.1204 64.353 41.1204 64.3983 41.1204C64.4437 41.211 64.5343 41.2564 64.6703 41.211C64.625 41.1657 64.5797 41.1204 64.5797 41.075C64.7157 41.0297 64.8517 40.8483 64.625 40.7123Z" fill="#A59B95"/>
<path d="M46.0822 60.9779C45.9462 60.9779 45.9462 60.8872 45.8102 60.8872C45.6742 61.1139 46.1276 61.1592 46.0822 60.9779Z" fill="#A59B95"/>
<path d="M63.8543 41.2111C64.1716 40.8937 64.3076 41.4378 63.8543 41.2111V41.2111Z" fill="#A59B95"/>
<path d="M55.2856 41.71C55.0136 41.71 54.9683 41.9366 54.8776 42.0727C55.1043 42.0727 55.1496 41.846 55.2856 41.71Z" fill="#A59B95"/>
<path d="M60.8167 41.4377H60.6354V41.6191H60.8167V41.4377Z" fill="#A59B95"/>
<path d="M40.8232 61.5674C40.6872 61.7034 40.6872 61.9301 41.0045 61.8394C41.0045 61.7034 40.9592 61.6127 40.8232 61.5674Z" fill="#A59B95"/>
<path d="M41.9113 61.6128C41.6846 61.6128 41.5939 61.6581 41.5486 61.7941C41.7299 61.7941 41.8659 61.7488 41.9113 61.6128Z" fill="#A59B95"/>
<path d="M64.081 41.9365C64.217 42.0725 64.489 41.8458 64.625 41.7098C64.3983 41.5285 64.217 41.8005 64.081 41.9365Z" fill="#A59B95"/>
<path d="M45.1755 61.93C44.9035 62.0207 44.8581 61.8846 44.7675 61.794C44.7675 61.7486 44.7675 61.7033 44.6768 61.658C44.5408 61.794 44.3594 61.8846 44.3594 62.1113C44.4048 62.1113 44.4954 62.066 44.5861 62.0207C44.7221 62.1567 45.1755 62.1567 45.1755 61.93Z" fill="#A59B95"/>
<path d="M35.1107 62.3835C35.1107 62.4742 34.9747 62.6102 35.1107 62.6556C35.1561 62.5649 35.2921 62.4289 35.1107 62.3835Z" fill="#A59B95"/>
<path d="M42.2286 62.5194C42.2286 62.3834 42.3646 62.3381 42.41 62.2474C42.3646 62.2474 42.3193 62.2474 42.3193 62.1567C42.1833 62.1567 42.0926 62.2474 42.0473 62.3381C42.1379 62.3381 42.1379 62.5194 42.2286 62.5194Z" fill="#A59B95"/>
<path d="M43.6341 62.202C43.226 62.1114 42.9087 62.6554 43.3167 62.7461C43.1807 62.3381 43.6341 62.4741 43.6341 62.202Z" fill="#A59B95"/>
<path d="M59.0939 42.798C59.0939 42.4807 59.5019 43.0247 59.5473 42.7074C59.4566 42.526 58.7312 42.5713 59.0939 42.798Z" fill="#A59B95"/>
<path d="M62.9476 42.7072C62.9476 42.5712 63.0836 42.5712 63.1289 42.4352C62.9022 42.3445 62.7209 42.6618 62.9476 42.7072Z" fill="#A59B95"/>
<path d="M39.5991 62.6555C39.5991 62.8821 39.7804 62.8821 39.9618 62.9275C40.0071 62.6554 39.8711 62.6101 39.5991 62.6555Z" fill="#A59B95"/>
<path d="M52.8375 43.07V43.1606C52.4294 43.6594 53.2455 42.9793 52.8375 43.07Z" fill="#A59B95"/>
<path d="M60.182 42.7525C59.5926 42.6618 59.9553 43.0245 60.182 42.7525V42.7525Z" fill="#A59B95"/>
<path d="M34.34 63.1541C34.3854 63.6981 33.796 63.6074 33.8413 64.1515L33.9773 64.2421V64.4235C34.476 64.3328 34.5667 63.8794 34.7481 63.4714C34.6574 63.3354 34.5214 63.2447 34.34 63.1541Z" fill="#A59B95"/>
<path d="M46.1729 62.6101C45.9916 62.6101 45.8556 62.7008 45.8102 62.7915C45.9916 62.7915 46.2636 62.8821 46.1729 62.6101Z" fill="#A59B95"/>
<path d="M56.6004 43.1606C56.147 43.3873 56.9177 43.3873 56.6004 43.1606V43.1606Z" fill="#A59B95"/>
<path d="M45.1755 62.7461C45.2209 62.9274 45.0849 63.2901 45.3569 63.1995C45.4022 62.9728 45.4022 62.7461 45.1755 62.7461Z" fill="#A59B95"/>
<path d="M56.6911 43.7954C56.6457 44.1128 56.6004 44.2034 56.9177 44.3395C56.8271 44.1581 56.8724 43.8861 56.6911 43.7954Z" fill="#A59B95"/>
<path d="M61.4514 43.6593C61.7688 43.342 61.9048 43.886 61.4514 43.6593V43.6593Z" fill="#A59B95"/>
<path d="M43.7247 63.6982C43.8154 63.9249 43.5434 63.8796 43.5434 64.0609C43.7701 64.1516 43.9061 63.7436 43.7247 63.6982Z" fill="#A59B95"/>
<path d="M60.9527 44.158C60.8167 44.158 60.726 44.2486 60.6807 44.3393C60.8167 44.3393 60.9074 44.2486 60.9527 44.158Z" fill="#A59B95"/>
<path d="M61.1341 44.5661C61.2701 44.5207 61.5874 44.6567 61.5874 44.4754C61.4514 44.5207 61.1341 44.3847 61.1341 44.5661Z" fill="#A59B95"/>
<path d="M40.6418 65.0129C40.8232 64.9676 40.9592 64.9222 41.0045 64.8315C40.8232 64.8769 40.5058 64.7409 40.6418 65.0129Z" fill="#A59B95"/>
<path d="M57.0538 45.1555C57.0538 45.2915 56.8271 45.2009 56.7817 45.3369C56.8724 45.5182 57.3258 45.2462 57.0538 45.1555Z" fill="#A59B95"/>
<path d="M40.2792 64.9675C40.1431 64.9675 39.9618 64.9675 40.0071 65.1489C40.1431 65.1489 40.2338 65.0582 40.2792 64.9675Z" fill="#A59B95"/>
<path d="M47.8504 46.1982C47.397 46.4249 48.1677 46.4249 47.8504 46.1982V46.1982Z" fill="#A59B95"/>
<path d="M62.3582 45.6995C62.0408 45.6541 61.7688 46.0168 62.0861 46.0622C61.9955 45.7901 62.3128 45.8808 62.3582 45.6995Z" fill="#A59B95"/>
<path d="M54.3789 46.2434C54.3789 46.3341 54.2429 46.4701 54.3789 46.5154C54.4242 46.4248 54.5602 46.2887 54.3789 46.2434Z" fill="#A59B95"/>
<path d="M50.2079 47.1503C50.0719 46.7876 50.3892 46.7876 50.3439 46.5156H49.9812C50.0265 46.7876 49.9812 47.1503 50.2079 47.1503Z" fill="#A59B95"/>
<path d="M47.805 47.1957C47.805 46.9237 47.3517 46.8784 47.4423 47.1957H47.805Z" fill="#A59B95"/>
<path d="M62.9022 46.1981C62.3582 46.1527 62.7209 46.5154 62.9022 46.1981V46.1981Z" fill="#A59B95"/>
<path d="M45.5835 48.1023C45.3569 48.1023 45.3115 48.2383 45.2209 48.3743C45.4929 48.3743 45.5382 48.2383 45.5835 48.1023Z" fill="#A59B95"/>
<path d="M49.8905 48.0117C49.8905 48.1024 49.7545 48.1024 49.6185 48.1024C49.5732 48.6011 50.2079 48.1477 49.8905 48.0117Z" fill="#A59B95"/>
<path d="M53.8802 48.5103C53.8348 48.2382 54.0615 48.1476 53.7895 48.0569C53.8349 48.2836 53.4722 48.1476 53.4268 48.3289C53.6988 48.2836 53.6082 48.6009 53.8802 48.5103Z" fill="#A59B95"/>
<path d="M46.2636 48.9638C46.1729 48.9638 46.2183 48.8731 46.2636 48.7825C46.0369 48.7825 46.0369 49.0092 45.9009 49.0545C46.0369 49.0545 46.2636 49.0998 46.2636 48.9638Z" fill="#A59B95"/>
<path d="M52.5654 48.9638C52.6561 48.8278 52.6108 48.6917 52.4748 48.6011C52.4748 48.7371 52.4294 48.9184 52.5654 48.9638Z" fill="#A59B95"/>
<path d="M44.8582 49.4172V49.2358H44.6768V49.4172H44.8582Z" fill="#A59B95"/>
<path d="M45.4022 49.3718C45.4022 49.5078 45.2662 49.5078 45.2209 49.6438H45.4929C45.4929 49.5532 45.4929 49.3718 45.4022 49.3718Z" fill="#A59B95"/>
<path d="M52.3841 49.5077C52.3841 49.4624 52.5654 49.145 52.3841 49.145C52.3387 49.1904 52.1574 49.5077 52.3841 49.5077Z" fill="#A59B95"/>
<path d="M50.0719 49.5079C50.2986 49.5079 50.3893 49.4625 50.4346 49.3265C50.2533 49.3265 49.9812 49.2358 50.0719 49.5079Z" fill="#A59B95"/>
<path d="M62.4489 49.3264C62.5849 49.3264 62.6755 49.2357 62.7209 49.1451C62.5395 49.1451 62.4035 49.0997 62.4489 49.3264Z" fill="#A59B95"/>
<path d="M53.0641 50.0971C52.9281 50.0971 52.9281 49.9611 52.7921 49.9158C52.8374 50.0971 52.6561 50.0971 52.6107 50.1878C52.7468 50.1425 53.0641 50.2785 53.0641 50.0971Z" fill="#A59B95"/>
<path d="M55.8297 49.9611C55.2856 50.2785 56.147 49.7798 55.8297 49.9611V49.9611Z" fill="#A59B95"/>
<path d="M52.0667 50.2332C52.112 50.2785 52.5201 50.4145 52.5201 50.2332C52.4747 50.1878 52.0667 50.0065 52.0667 50.2332Z" fill="#A59B95"/>
<path d="M58.6405 50.1878C58.5952 50.0064 58.9579 50.1424 59.0939 50.0971C59.1393 49.6891 58.2779 50.0971 58.6405 50.1878Z" fill="#A59B95"/>
<path d="M46.2636 50.7772C46.6716 51.0038 46.7623 50.4145 46.2636 50.7772V50.7772Z" fill="#A59B95"/>
<path d="M52.2027 50.8679V50.6865C52.0214 50.3692 51.7494 50.9585 52.2027 50.8679Z" fill="#A59B95"/>
<path d="M45.9009 51.0493C45.5382 50.7773 45.7196 51.3667 45.9009 51.0493V51.0493Z" fill="#A59B95"/>
<path d="M45.6742 51.1853C45.4475 51.1853 45.2662 51.276 45.1302 51.3666C45.4022 51.3666 45.5836 51.3213 45.6742 51.1853Z" fill="#A59B95"/>
<path d="M55.2856 51.82C55.2403 51.7293 55.1949 51.684 55.1043 51.6387C55.1043 51.7293 55.0136 51.7293 54.9229 51.7293L54.9683 51.8654L54.8322 51.9107V52.0014L55.0136 51.956L55.1043 52.092C55.2403 52.0467 55.2856 51.956 55.2856 51.82Z" fill="#A59B95"/>
<path d="M56.4644 35.272C56.6911 34.9547 56.9178 35.5894 56.4644 35.272V35.272Z" fill="#A59B95"/>
<path d="M56.6004 35.6348C56.555 35.7708 56.5097 35.9521 56.6004 36.0428C56.6457 35.9068 56.8724 35.6801 56.6004 35.6348Z" fill="#A59B95"/>
<path d="M49.7545 52.2281C49.8905 52.1827 50.0719 52.2281 50.1172 52.1374C50.0265 52.1374 50.0265 52.0467 50.0265 51.9561H49.8452C49.8452 52.0921 49.7999 52.1827 49.7545 52.2281Z" fill="#A59B95"/>
<path d="M42.682 52.6361C42.1833 52.9987 42.274 52.4547 42.682 52.6361V52.6361Z" fill="#A59B95"/>
<path d="M58.0512 35.3627C57.8698 35.2267 57.7338 35.2267 57.6431 35.3627C57.6885 35.6348 57.9152 35.4988 58.0512 35.3627Z" fill="#A59B95"/>
<path d="M57.6431 35.7707C57.7791 35.8161 57.9151 35.9521 58.0058 35.8614C57.9151 35.6801 57.7791 35.6801 57.6431 35.7707Z" fill="#A59B95"/>
<path d="M46.2183 53.6788C46.4449 53.6788 46.581 53.6335 46.6716 53.4975C46.4903 53.4975 46.1276 53.3615 46.2183 53.6788Z" fill="#A59B95"/>
<path d="M54.1069 53.4067C54.2882 53.5427 54.3789 53.3614 54.4696 53.2253C54.2882 53.2253 54.1522 53.2707 54.1069 53.4067Z" fill="#A59B95"/>
<path d="M45.4022 53.7241C45.2662 53.8148 44.9035 53.7241 44.9488 53.9961C45.1755 53.9508 45.3569 53.9055 45.4022 53.7241Z" fill="#A59B95"/>
<path d="M42.6367 53.9962C42.7727 54.0415 42.8633 54.1322 42.9994 54.1776C43.1807 53.8602 42.682 53.8149 42.6367 53.9962Z" fill="#A59B95"/>
<path d="M45.5836 53.7695C45.5836 54.0415 45.8102 54.0868 46.0369 54.0868C46.0823 53.8148 45.7196 53.9961 45.9463 53.7241C45.8556 53.7695 45.7196 53.7695 45.5836 53.7695Z" fill="#A59B95"/>
<path d="M44.8128 54.3588C44.9942 54.1321 44.4955 54.1321 44.5408 54.2681C44.5408 54.2681 44.8582 54.3135 44.8128 54.3588Z" fill="#A59B95"/>
<path d="M55.1949 53.9961C55.603 54.1775 55.6937 53.6334 55.1949 53.9961V53.9961Z" fill="#A59B95"/>
<path d="M44.1781 54.6761C43.9061 54.7668 43.9061 54.5401 43.6341 54.6307C43.6341 54.9028 44.1781 54.9481 44.1781 54.6761Z" fill="#A59B95"/>
<path d="M59.774 53.8601V54.0415H59.9553V53.8601H59.774Z" fill="#A59B95"/>
<path d="M60.046 53.8601C60.046 54.1321 60.4994 54.2228 60.4994 53.9508C60.2727 53.9508 60.2727 53.7694 60.046 53.8601Z" fill="#A59B95"/>
<path d="M59.8193 35.8615C59.6833 35.8162 59.5473 35.7255 59.502 35.9068C59.5473 35.9522 59.5926 35.9522 59.6833 35.9975C59.6833 35.8615 59.774 35.9068 59.8193 35.8615Z" fill="#A59B95"/>
<path d="M47.6237 55.0389C47.4423 55.0389 47.4423 54.8122 47.261 54.7668C47.3063 54.9029 47.1703 55.2202 47.3517 55.2202C47.3517 55.0842 47.6237 55.1749 47.6237 55.0389Z" fill="#A59B95"/>
<path d="M49.7545 54.6762C49.5732 54.7216 49.1198 54.5402 49.2105 54.9029C49.4825 54.8576 49.7545 54.9029 49.7545 54.6762Z" fill="#A59B95"/>
<path d="M57.8245 54.5854C58.0058 54.5854 58.1418 54.5401 58.1872 54.4041C58.0058 54.4041 57.8698 54.4494 57.8245 54.5854Z" fill="#A59B95"/>
<path d="M51.6587 54.7668H51.4774V54.9482H51.6587V54.7668Z" fill="#A59B95"/>
<path d="M42.002 55.4922C41.8659 55.4922 41.6846 55.4922 41.7299 55.6735C41.9113 55.6735 41.9566 55.5829 42.002 55.4922Z" fill="#A59B95"/>
<path d="M34.5667 55.9001H34.5214C34.476 55.9455 34.3854 55.9455 34.34 55.9908C34.3854 56.0362 34.476 56.0362 34.5667 55.9001Z" fill="#A59B95"/>
<path d="M44.0874 56.0363C44.4048 56.1723 44.7221 55.8096 44.4501 55.6736C44.6315 56.0363 44.1328 55.8096 44.0874 56.0363Z" fill="#A59B95"/>
<path d="M59.774 37.7203C59.8193 37.5843 59.8646 37.4483 59.774 37.3123C59.7286 37.4936 59.5019 37.675 59.774 37.7203Z" fill="#A59B95"/>
<path d="M37.7856 56.0364C37.559 56.0817 37.4229 56.1271 37.3323 56.3084C37.5136 56.4897 37.7856 56.2631 37.7856 56.0364Z" fill="#A59B95"/>
<path d="M50.5253 55.6282C50.2532 55.7188 50.2079 55.9455 49.9359 56.0362C50.1172 56.2175 50.8426 55.9455 50.5253 55.6282Z" fill="#A59B95"/>
<path d="M53.2001 55.4922C53.2908 55.7189 53.0188 55.6735 53.0188 55.8549C53.1548 55.8095 53.3362 55.8549 53.3815 55.7642C53.2455 55.7642 53.3362 55.5375 53.2001 55.4922Z" fill="#A59B95"/>
<path d="M52.7921 55.991C52.7921 56.1723 52.5654 56.1723 52.5201 56.3537C52.8374 56.2177 52.9735 56.399 53.1548 56.2177C52.9735 56.2177 52.9735 55.991 52.7921 55.991Z" fill="#A59B95"/>
<path d="M51.0693 56.127H50.8879C50.8879 56.263 50.8879 56.4443 50.9786 56.4896C50.9786 56.3536 51.1146 56.3536 51.16 56.2176C51.1146 56.2176 51.0693 56.2176 51.0693 56.127Z" fill="#A59B95"/>
<path d="M43.9514 56.7617C44.1328 56.7163 44.4048 56.8523 44.3141 56.5803C44.1328 56.5803 43.9968 56.6257 43.9514 56.7617Z" fill="#A59B95"/>
<path d="M19.9683 64.3783C20.2403 64.605 20.0589 64.877 20.3763 64.741C20.2856 64.605 20.3763 64.4236 20.2403 64.2876C20.1496 64.3329 20.0589 64.3783 19.9683 64.3783Z" fill="#A59B95"/>
<path d="M37.0602 57.3511C37.0602 57.2151 37.0602 57.0791 37.1509 56.9884C36.8789 56.943 36.7882 57.3511 37.0602 57.3511Z" fill="#A59B95"/>
<path d="M54.6962 56.4443C54.6509 56.2176 54.9683 56.3536 54.9683 56.1723C54.6962 56.0816 54.4242 56.3536 54.6962 56.4443Z" fill="#A59B95"/>
<path d="M44.6768 57.2603C45.0395 57.351 45.0848 56.6709 44.8128 56.7163C44.9488 57.0336 44.6315 56.9883 44.6768 57.2603Z" fill="#A59B95"/>
<path d="M62.5848 34.7279C62.4942 34.6826 62.4942 34.5013 62.3582 34.5919C62.4488 34.6826 62.4488 34.8186 62.5848 34.7279Z" fill="#A59B95"/>
<path d="M57.5525 56.3084C57.6885 56.3537 57.7791 56.4444 57.9152 56.4897C57.9605 56.2631 57.5978 56.1271 57.5525 56.3084Z" fill="#A59B95"/>
<path d="M63.3556 33.4132C63.4009 33.3226 63.4916 33.2319 63.5369 33.2319C63.3556 33.2319 63.4009 32.8692 63.2196 33.0505C63.4009 33.0959 63.1742 33.3226 63.3556 33.4132Z" fill="#A59B95"/>
<path d="M30.8037 57.7138C30.4864 57.8045 30.3957 57.5778 30.2597 57.7592C30.169 58.0765 30.8491 57.9405 30.8037 57.7138Z" fill="#A59B95"/>
<path d="M58.5499 56.7162L58.5952 56.7616C58.7312 56.6255 58.8219 56.4895 58.9579 56.3535H58.8219C58.9126 56.6255 58.5952 56.5349 58.5499 56.7162Z" fill="#A59B95"/>
<path d="M52.3841 56.8071C52.6107 56.4444 52.7014 57.0791 52.3841 56.8071V56.8071Z" fill="#A59B95"/>
<path d="M63.1742 33.7305C63.0835 33.7758 63.1289 34.0025 63.1289 34.0025C63.2649 34.1385 63.2649 33.6852 63.1742 33.7305Z" fill="#A59B95"/>
<path d="M50.2533 57.1697C50.0266 57.1697 49.9359 57.215 49.8906 57.351C49.9359 57.351 49.9812 57.351 49.9812 57.4417H50.1626C50.1626 57.351 50.2079 57.2604 50.2533 57.1697Z" fill="#A59B95"/>
<path d="M29.8063 58.2126C29.8063 58.3939 29.897 58.5299 29.9877 58.5753C30.1237 58.4392 30.0784 58.1672 29.8063 58.2126Z" fill="#A59B95"/>
<path d="M40.6418 57.7136C40.5965 58.2577 41.0499 57.7136 40.6418 57.7136V57.7136Z" fill="#A59B95"/>
<path d="M43.7247 57.8499C43.5887 57.8499 43.4074 57.8499 43.4527 58.0312C43.6341 58.0312 43.6794 57.9405 43.7247 57.8499Z" fill="#A59B95"/>
<path d="M53.4722 57.3965C53.4268 57.9405 53.8802 57.3965 53.4722 57.3965V57.3965Z" fill="#A59B95"/>
<path d="M35.1107 58.3484C35.0654 58.8471 35.5188 58.3484 35.1107 58.3484V58.3484Z" fill="#A59B95"/>
<path d="M53.0188 57.4871C52.9281 57.4871 52.7468 57.4871 52.7468 57.5777C52.8828 57.5777 52.8374 57.7137 52.9281 57.7591C52.9735 57.6684 53.0641 57.6684 53.0188 57.4871Z" fill="#A59B95"/>
<path d="M64.217 34.2292C63.8089 34.5013 64.3983 34.5466 64.217 34.2292V34.2292Z" fill="#A59B95"/>
<path d="M44.4955 58.7111C44.2688 58.8018 44.3141 58.5298 44.1328 58.5298C44.0874 58.5751 44.0874 58.6205 44.0874 58.6658C44.0421 58.6205 43.9061 58.6205 43.8607 58.8018C44.0421 58.8471 44.1328 58.8018 44.1781 58.7565C44.2234 58.8471 44.4501 58.8471 44.4955 58.7111Z" fill="#A59B95"/>
<path d="M63.9449 36.4053C63.9903 36.2693 64.0356 36.1333 63.9449 35.9973C63.8543 36.1787 63.8089 36.3147 63.9449 36.4053Z" fill="#A59B95"/>
<path d="M54.0615 58.5298C53.7895 58.5298 53.5175 58.6205 53.3361 58.7565C53.4721 58.8018 54.0162 58.8018 54.0615 58.5298Z" fill="#A59B95"/>
<path d="M40.6418 59.5271C40.9592 59.5725 41.0952 59.3005 40.8232 59.2551C40.8232 59.3911 40.6872 59.3911 40.6418 59.5271Z" fill="#A59B95"/>
<path d="M52.1121 58.8924C51.9307 58.9378 51.9307 58.8018 51.7494 58.8018C51.7947 58.9831 51.6134 59.4365 51.9307 59.3458C51.7947 59.0738 51.9761 59.0738 52.1121 58.8924Z" fill="#A59B95"/>
<path d="M63.6729 38.355C63.7636 38.2189 63.7183 38.1283 63.6276 38.0376C63.5823 38.1736 63.5823 38.3096 63.6729 38.355Z" fill="#A59B95"/>
<path d="M32.1639 60.0713C32.0278 60.0713 31.8465 60.0713 31.8918 60.2526C32.0732 60.298 32.1185 60.2073 32.1639 60.0713Z" fill="#A59B95"/>
<path d="M34.2947 60.1619C34.0227 60.2979 34.204 59.8899 33.932 59.9806C33.796 60.2979 34.2947 60.3886 34.2947 60.1619Z" fill="#A59B95"/>
<path d="M32.9799 60.1618C32.8439 60.5699 33.2973 60.3432 33.4333 60.2525C33.2973 60.1618 33.1613 60.1165 32.9799 60.1618Z" fill="#A59B95"/>
<path d="M31.3478 60.2979H30.9851C30.8491 60.7512 31.3931 60.5245 31.3478 60.2979Z" fill="#A59B95"/>
<path d="M50.6159 59.5271C50.6613 59.5725 50.9786 59.7538 50.9786 59.5271C50.9333 59.4818 50.6159 59.3004 50.6159 59.5271Z" fill="#A59B95"/>
<path d="M64.9424 36.6775C64.6703 36.7682 64.8064 37.0402 64.8517 37.2215C64.9424 37.0402 65.1237 36.8135 64.9424 36.6775Z" fill="#A59B95"/>
<path d="M31.3025 60.8421C31.5291 60.8421 31.6198 60.7968 31.6652 60.6607C31.4838 60.6607 31.2118 60.5701 31.3025 60.8421Z" fill="#A59B95"/>
<path d="M62.9475 41.4379C62.8569 41.3926 62.8569 41.2112 62.7209 41.3019C62.8115 41.3472 62.8569 41.5286 62.9475 41.4379Z" fill="#A59B95"/>
<path d="M52.0667 59.8899C51.7947 59.9352 51.6133 59.6632 51.5227 60.0259C51.704 59.9352 52.0667 60.0712 52.0667 59.8899Z" fill="#A59B95"/>
<path d="M47.0797 60.4794C47.0797 60.4341 47.3064 60.1167 47.0797 60.1167C47.1703 60.298 46.8076 60.4341 47.0797 60.4794Z" fill="#A59B95"/>
<path d="M61.2248 44.9742C61.3608 44.7928 61.4514 45.4729 61.7235 45.2008C61.7688 45.0195 61.0434 44.5661 61.2248 44.9742Z" fill="#A59B95"/>
<path d="M53.8802 59.9806C53.6988 60.1166 53.6082 60.2979 53.6535 60.5699C53.8348 60.5246 53.9709 60.2979 53.9255 60.1166C54.0615 60.2073 54.2429 60.0259 54.3335 59.8899C54.1975 59.9352 54.0162 59.9352 53.9255 60.0712C53.8802 60.0259 53.8802 59.9806 53.8802 59.9806Z" fill="#A59B95"/>
<path d="M62.7662 41.8459C62.9929 41.4832 63.2195 42.1179 62.7662 41.8459V41.8459Z" fill="#A59B95"/>
<path d="M38.7377 61.0687C38.7377 60.9327 38.7377 60.7513 38.5563 60.7967V60.978C38.647 60.978 38.6923 61.0233 38.7377 61.0687Z" fill="#A59B95"/>
<path d="M46.6263 60.4338C46.1729 60.6605 46.9437 60.6152 46.6263 60.4338V60.4338Z" fill="#A59B95"/>
<path d="M31.8465 61.4767C32.0732 61.4767 32.2545 61.3861 32.3906 61.2954C32.2545 61.114 31.7558 61.114 31.8465 61.4767Z" fill="#A59B95"/>
<path d="M61.1341 45.6994C61.1794 45.7447 61.2247 45.7447 61.3154 45.7901C61.3608 45.7447 61.3608 45.6994 61.4061 45.6087C61.3608 45.5634 61.3154 45.5634 61.2247 45.5181C61.1794 45.6087 61.1341 45.6541 61.1341 45.6994Z" fill="#A59B95"/>
<path d="M36.5162 61.1594C36.2895 61.1594 36.3348 61.2954 36.1535 61.1594C36.1082 61.5221 36.5615 61.4314 36.5162 61.1594Z" fill="#A59B95"/>
<path d="M62.2221 44.158C61.8141 44.3393 62.3128 44.6567 62.2221 44.158V44.158Z" fill="#A59B95"/>
<path d="M65.7131 38.0829C65.8491 37.8562 65.8038 37.6295 65.5771 37.5388C65.4864 37.6295 65.3957 37.5842 65.3051 37.7202C65.6224 37.7655 65.7131 37.9015 65.7131 38.0829Z" fill="#A59B95"/>
<path d="M32.5719 61.6128C32.3452 61.6128 32.2999 61.7941 32.1185 61.6128C32.1185 61.7941 32.2092 61.8848 32.2999 61.9755C32.2999 61.7488 32.6626 61.8848 32.5719 61.6128Z" fill="#A59B95"/>
<path d="M36.1988 61.794C36.3348 61.658 36.2895 61.386 36.0175 61.4313C36.0175 61.6127 36.0628 61.7487 36.1988 61.794Z" fill="#A59B95"/>
<path d="M34.204 61.6128C34.204 61.7941 33.932 61.7035 33.932 61.8848C34.1587 61.9755 34.4307 61.7035 34.204 61.6128Z" fill="#A59B95"/>
<path d="M35.3828 61.5674V61.7487H35.5641V61.5674H35.3828Z" fill="#A59B95"/>
<path d="M50.2533 60.9779C50.0719 61.1139 50.4799 61.658 50.616 61.4313C50.3893 61.3406 50.616 60.8419 50.2533 60.9779Z" fill="#A59B95"/>
<path d="M32.9799 61.9302C32.8892 61.8395 32.6626 62.0208 32.6172 62.0208C32.4812 62.3382 33.1159 62.0662 32.9799 61.9302Z" fill="#A59B95"/>
<path d="M42.818 61.5674C42.7727 61.6581 42.3193 61.7941 42.6367 61.9301C42.5913 61.7941 43.1354 61.7034 42.818 61.5674Z" fill="#A59B95"/>
<path d="M65.6224 38.7175C65.5318 38.8535 65.5771 38.9442 65.6678 39.0349C65.7131 38.9442 65.7131 38.8082 65.6224 38.7175Z" fill="#A59B95"/>
<path d="M65.8944 38.5816C65.9398 38.5363 65.9398 38.4909 65.9851 38.4002C65.9398 38.3549 65.8944 38.3549 65.8037 38.3096C65.7584 38.3549 65.7584 38.4002 65.7131 38.4909C65.8037 38.5363 65.8491 38.5363 65.8944 38.5816Z" fill="#A59B95"/>
<path d="M46.1276 61.8848C46.1276 61.7488 46.1276 61.5675 45.9462 61.6128V61.7942C46.0369 61.7942 46.0822 61.8848 46.1276 61.8848Z" fill="#A59B95"/>
<path d="M31.2571 62.3835V62.5649H31.5292V62.3835H31.2571Z" fill="#A59B95"/>
<path d="M36.4255 62.6102V62.4288C36.4255 62.3835 36.4255 62.3381 36.3348 62.3381C36.2442 62.5648 35.9721 62.2021 35.8815 62.5195C36.1535 62.4741 36.1082 62.7008 36.4255 62.6102Z" fill="#A59B95"/>
<path d="M52.0667 61.7034C52.1121 61.8847 51.976 61.9301 51.976 62.0661C52.2481 62.2021 52.2027 61.658 52.0667 61.7034Z" fill="#A59B95"/>
<path d="M47.9411 62.2475C47.8504 62.2475 47.8504 62.1568 47.8504 62.0662C47.7597 62.0662 47.5784 62.0662 47.5784 62.1568C47.7144 62.1568 47.6237 62.3835 47.7597 62.4289C47.8051 62.3382 47.9411 62.3382 47.9411 62.2475Z" fill="#A59B95"/>
<path d="M48.0317 62.2475C48.3038 62.1115 48.6665 62.5649 48.6665 62.1115C48.6211 62.1569 48.0317 61.9755 48.0317 62.2475Z" fill="#A59B95"/>
<path d="M32.7532 62.8822C32.7532 62.9275 32.7532 62.9729 32.6626 62.9729V63.1542C32.8893 63.2449 32.8893 62.8369 32.7532 62.8822Z" fill="#A59B95"/>
<path d="M38.0576 62.9729C38.239 62.6555 38.2843 63.4263 38.0576 62.9729V62.9729Z" fill="#A59B95"/>
<path d="M48.1677 62.6101V62.4287H47.9864V62.6101H48.1677Z" fill="#A59B95"/>
<path d="M51.3866 62.2927H51.2053C51.2053 62.4287 51.16 62.4741 51.1146 62.5647C51.3413 62.5647 51.432 62.5194 51.4773 62.3834C51.432 62.3381 51.3413 62.3381 51.3866 62.2927Z" fill="#A59B95"/>
<path d="M47.1703 62.5647C47.1703 62.8367 47.2157 63.0181 47.3517 63.1087C47.3064 62.8821 47.4877 62.474 47.1703 62.5647Z" fill="#A59B95"/>
<path d="M49.7545 62.5195C49.7545 62.7009 49.5279 62.6555 49.5732 62.8822C49.7999 62.9729 49.9812 62.5649 49.7545 62.5195Z" fill="#A59B95"/>
<path d="M41.4579 63.2901C41.1406 63.018 41.1859 63.6074 41.4579 63.2901V63.2901Z" fill="#A59B95"/>
<path d="M51.84 62.7915C51.1146 62.8822 52.2934 62.7462 51.84 62.7915V62.7915Z" fill="#A59B95"/>
<path d="M36.0175 64.1516C35.9721 63.8342 35.8815 63.7889 35.9721 63.5168C35.4734 63.5168 35.8815 63.8795 35.7455 64.1516H36.0175Z" fill="#A59B95"/>
<path d="M42.818 63.381C42.7273 63.1996 42.0473 63.2449 42.1833 63.6076C42.274 63.6983 42.818 63.7436 42.9087 63.5623L42.7727 63.517L42.818 63.381Z" fill="#A59B95"/>
<path d="M64.2623 45.2914C64.3077 45.3367 64.353 45.3367 64.4437 45.382C64.489 45.2914 64.5797 45.3367 64.625 45.246C64.4437 45.2007 64.3077 45.0647 64.2623 45.2914Z" fill="#A59B95"/>
<path d="M64.7157 44.6115C64.761 44.6569 64.8063 44.6569 64.897 44.7022C64.9423 44.6569 64.9423 44.6115 64.9877 44.5208C64.9423 44.4755 64.897 44.4755 64.8063 44.4302C64.761 44.4755 64.7157 44.5662 64.7157 44.6115Z" fill="#A59B95"/>
<path d="M36.4709 64.0608C36.4709 63.9248 36.3802 63.8342 36.2895 63.7888C36.1535 63.9248 36.1535 64.1515 36.4709 64.0608Z" fill="#A59B95"/>
<path d="M47.8504 63.7889C48.0317 63.7435 48.2131 63.7435 48.2131 63.5168C47.9864 63.5168 47.9411 63.6529 47.8504 63.7889Z" fill="#A59B95"/>
<path d="M44.2688 64.2422C44.4955 64.2875 44.6768 64.3328 44.8128 64.1061C44.6768 63.9701 44.4048 64.1061 44.2688 64.2422Z" fill="#A59B95"/>
<path d="M50.0265 64.1969C49.7545 64.0156 50.2079 63.7889 50.0265 64.1969V64.1969Z" fill="#A59B95"/>
<path d="M14.3918 65.6929C14.3918 65.7836 14.3918 65.965 14.4825 65.965C14.4825 65.9196 14.4825 65.8743 14.5732 65.8743C14.5732 65.7383 14.5279 65.6476 14.3918 65.6929Z" fill="#A59B95"/>
<path d="M14.6639 65.8745C14.8452 65.8291 15.1172 65.9651 15.0266 65.6931C14.8452 65.6931 14.7092 65.7384 14.6639 65.8745Z" fill="#A59B95"/>
<path d="M18.5175 65.7837C18.1548 65.4663 18.3361 66.0557 18.5175 65.7837V65.7837Z" fill="#A59B95"/>
<path d="M31.2118 65.1943C31.4838 64.8316 31.5291 65.4663 31.2118 65.1943V65.1943Z" fill="#A59B95"/>
<path d="M13.5758 66.0103C13.6211 66.0103 13.6664 66.0556 13.6664 66.0556V66.0103H13.5758Z" fill="#A59B95"/>
<path d="M14.1198 66.1465C14.2558 66.1465 14.3012 66.2825 14.4825 66.2372C14.6185 65.9651 14.0745 66.0105 14.1198 66.1465Z" fill="#A59B95"/>
<path d="M33.932 65.1489C33.932 65.4209 33.932 65.6476 34.204 65.6022C34.204 65.4662 34.2494 65.4209 34.2947 65.3302C34.1134 65.3302 34.1587 65.0582 33.932 65.1489Z" fill="#A59B95"/>
<path d="M37.6043 65.4209C37.831 65.3302 37.967 65.1489 38.0123 64.9675C37.695 64.9675 37.695 65.2396 37.6043 65.4209Z" fill="#A59B95"/>
<path d="M46.1276 64.8769C46.2183 64.9676 46.3543 64.9676 46.581 64.9676C46.6716 64.6502 46.0822 64.6956 46.1276 64.8769Z" fill="#A59B95"/>
<path d="M37.3323 65.2849C37.2869 65.5116 37.0149 65.5116 37.0149 65.7383C37.3323 65.829 37.2416 65.5116 37.5589 65.5569V65.3756C37.4229 65.3303 37.4229 65.2849 37.3323 65.2849Z" fill="#A59B95"/>
<path d="M45.0395 65.1944C44.9942 65.013 45.1755 65.013 45.2209 64.9224H44.8582C44.8582 65.0584 44.9488 65.149 45.0395 65.1944Z" fill="#A59B95"/>
<path d="M46.8983 65.013C46.6263 64.7409 46.6716 65.3303 46.8983 65.013V65.013Z" fill="#A59B95"/>
<path d="M36.6522 65.7383C36.6522 65.8743 36.2442 65.6476 36.2895 66.0103C36.5615 65.9196 36.4708 65.9196 36.7429 66.0103V65.829C36.7429 65.7836 36.6975 65.7383 36.6522 65.7383Z" fill="#A59B95"/>
<path d="M35.0201 66.0103C35.1561 66.0103 35.1108 66.1463 35.2014 66.1916C35.2014 66.0556 35.3374 66.0556 35.3828 65.9196C35.2468 65.9196 35.0654 65.8743 35.0201 66.0103Z" fill="#A59B95"/>
<path d="M46.9437 65.4664C47.3064 65.1037 47.3064 65.693 46.9437 65.4664V65.4664Z" fill="#A59B95"/>
<path d="M41.8659 65.9651C41.8206 65.7384 42.3646 66.0104 42.3193 65.7837C42.0473 65.693 41.5939 65.693 41.8659 65.9651Z" fill="#A59B95"/>
<path d="M22.3258 66.6903V66.781C21.9178 67.2797 22.7338 66.5997 22.3258 66.6903Z" fill="#A59B95"/>
<path d="M39.1457 66.1009C38.919 66.2369 38.783 65.8742 38.6924 66.1009C38.783 66.1463 39.1457 66.2823 39.1457 66.1009Z" fill="#A59B95"/>
<path d="M25.998 67.0532C26.2247 67.0532 26.2247 66.8718 26.2701 66.6905C25.998 66.5998 26.1794 66.9625 25.998 67.0532Z" fill="#A59B95"/>
<path d="M36.0175 66.2371C35.9268 66.3731 35.7455 66.6451 36.0175 66.6904C35.9721 66.5091 36.2895 66.2824 36.0175 66.2371Z" fill="#A59B95"/>
<path d="M37.3776 66.3276C37.3776 66.509 37.1509 66.4636 37.1962 66.6903C37.4683 66.781 37.6043 66.373 37.3776 66.3276Z" fill="#A59B95"/>
<path d="M43.5887 66.4183C43.09 66.373 43.09 66.509 43.0447 66.7357C42.7273 66.7357 42.9087 66.2823 42.5913 66.3276C42.682 66.5997 42.5913 66.5543 42.6367 66.8717H42.546L42.5913 66.9624L42.546 67.053C42.7727 67.4157 43.0447 67.3251 43.3621 67.5971C43.4074 67.5971 43.4981 67.5517 43.5434 67.5517C43.7247 67.1437 43.9061 66.7357 43.5887 66.4183Z" fill="#A59B95"/>
<path d="M25.046 67.1891C25.1367 67.4611 24.91 67.4158 25.0006 67.6425C25.2273 67.7785 25.182 67.1438 25.046 67.1891Z" fill="#A59B95"/>
<path d="M29.0809 67.0079C28.4916 66.9172 28.8996 67.2799 29.0809 67.0079V67.0079Z" fill="#A59B95"/>
<path d="M27.9475 67.5066C28.1742 67.5066 28.2649 67.4613 28.3102 67.3252C28.1742 67.1892 27.9022 67.2346 27.9475 67.5066Z" fill="#A59B95"/>
<path d="M24.0939 67.7786C24.3206 67.7333 24.6379 67.7786 24.6379 67.5066C24.3206 67.4613 24.2299 67.6426 24.0939 67.7786Z" fill="#A59B95"/>
<path d="M45.0395 66.5545C45.0395 66.6452 45.0395 66.8265 45.1302 66.8265C45.1302 66.7812 45.1302 66.7359 45.2208 66.7359C45.1755 66.5999 45.1755 66.5092 45.0395 66.5545Z" fill="#A59B95"/>
<path d="M25.7714 67.5973C25.998 67.5066 26.2247 67.8693 26.3154 67.5519C26.2701 67.5066 25.8167 67.4159 25.7714 67.5973Z" fill="#A59B95"/>
<path d="M38.9644 67.6425C39.2364 67.5972 39.4177 67.4612 39.5084 67.2345C39.2364 67.0531 38.8737 67.2798 38.9644 67.6425Z" fill="#A59B95"/>
<path d="M25.0006 67.9146C24.91 68.0506 24.91 68.2319 24.8646 68.3679C25.0913 68.4586 25.182 67.9599 25.0006 67.9146Z" fill="#A59B95"/>
<path d="M40.0071 67.2344C40.0071 67.4157 39.6897 67.3251 39.7351 67.5064C39.9618 67.7784 40.2791 67.2797 40.0071 67.2344Z" fill="#A59B95"/>
<path d="M32.7986 67.9145C33.1613 68.3679 33.2066 67.5972 32.7986 67.9145V67.9145Z" fill="#A59B95"/>
<path d="M27.8115 68.5039C27.9475 68.5039 28.0382 68.4132 28.0835 68.3225C27.9022 68.3225 27.8115 68.3678 27.8115 68.5039Z" fill="#A59B95"/>
<path d="M39.9618 68.0505C40.2338 68.0505 40.5512 68.0505 40.5058 67.7332C40.2792 67.8238 40.0071 67.8238 39.9618 68.0505Z" fill="#A59B95"/>
<path d="M36.3802 68.1865V68.3679H36.5615V68.1865H36.3802Z" fill="#A59B95"/>
<path d="M30.5771 68.5493C30.5317 68.6853 30.441 68.5493 30.305 68.5493C30.2144 69.048 30.8944 68.7307 30.5771 68.5493Z" fill="#A59B95"/>
<path d="M39.0097 68.5493C39.0097 68.6853 39.0097 68.8213 39.1004 68.8667H39.1457C39.2364 68.7307 39.1911 68.5493 39.0097 68.5493Z" fill="#A59B95"/>
<path d="M36.3348 69.3653C36.3802 69.3653 36.3802 69.4106 36.4255 69.4106C36.5162 69.4106 36.5615 69.3653 36.6522 69.3653C36.7429 69.2746 36.6522 69.1386 36.3348 69.3653Z" fill="#A59B95"/>
<path d="M10.6742 61.7939C10.7196 62.066 10.2208 61.8393 10.3115 62.1566C10.5382 62.202 10.9462 61.93 10.6742 61.7939Z" fill="#A59B95"/>
<path d="M56.8271 40.5311C56.9631 40.395 56.9177 40.123 56.8724 39.8963L56.7364 39.9417L56.7817 39.8057C56.3284 39.8963 56.419 40.5311 56.8271 40.5311Z" fill="#A59B95"/>
<path d="M22.2351 60.7967L22.0991 60.8421L22.0538 60.7061C21.9631 60.8421 21.7817 60.8874 21.6911 61.0688L21.8271 61.1141L21.7817 61.2501C22.0084 61.2501 21.9631 61.3861 22.1444 61.2501C22.2351 61.1594 22.2351 60.9781 22.2351 60.7967Z" fill="#A59B95"/>
<path d="M28.5822 63.9702C28.6276 63.7888 28.7636 63.7435 28.7182 63.5168C28.5822 63.5168 28.5822 63.3808 28.4462 63.3354C28.2195 63.5168 28.3102 63.8795 28.5822 63.9702Z" fill="#A59B95"/>
<path d="M19.9229 67.8691C20.0136 68.2318 19.7869 68.2772 19.6962 68.4132C19.7416 68.4132 19.7416 68.4132 19.7869 68.4585C19.9682 68.5039 20.1496 68.5492 20.3309 68.6399C20.3763 68.5945 20.4216 68.5039 20.3763 68.4132C20.0589 68.4132 20.2403 67.8691 19.9229 67.8691Z" fill="#A59B95"/>
<path d="M26.3154 59.7991C26.3154 59.7084 26.3154 59.5271 26.2248 59.5271C26.3608 59.8898 25.7261 59.5271 25.8621 59.8898C26.0888 59.9351 26.1794 59.8898 26.3154 59.7991Z" fill="#A59B95"/>
<path d="M26.2701 62.474V62.1113C26.0434 62.066 26.0887 62.2926 25.8167 62.202C25.7714 62.5193 26.0887 62.4286 26.2701 62.474Z" fill="#A59B95"/>
<path d="M15.8879 61.386C15.6159 61.386 15.3892 61.4313 15.4346 61.7487C15.7066 61.7487 15.7519 61.522 15.8879 61.386Z" fill="#A59B95"/>
<path d="M57.8698 50.8679C57.8698 51.1399 57.4618 51.0493 57.6431 51.2306C57.7792 51.0039 58.1418 51.1853 57.8698 50.8679Z" fill="#A59B95"/>
<path d="M56.0564 56.5803C56.0564 56.4896 56.1017 56.3536 56.0564 56.2629C55.9657 56.3536 55.875 56.7616 56.0564 56.5803Z" fill="#A59B95"/>
<path d="M62.3582 48.1929C62.3582 48.3289 62.4488 48.4196 62.5395 48.465C62.5395 48.5103 62.5395 48.5556 62.5848 48.5556C62.7208 48.3743 62.5848 47.9662 62.4488 48.0569C62.4942 48.1476 62.4942 48.1929 62.4942 48.2836C62.4488 48.2383 62.4035 48.2383 62.3582 48.1929Z" fill="#A59B95"/>
<path d="M61.4968 43.3872C61.6781 43.3872 61.6781 43.6139 61.8595 43.6592C61.9048 43.3872 61.4968 43.2059 61.4968 43.3872Z" fill="#A59B95"/>
<path d="M61.4061 43.5686V43.6593C60.9527 43.9313 61.7234 43.5686 61.4061 43.5686Z" fill="#A59B95"/>
<path d="M57.8245 43.886C57.8245 44.022 57.6431 44.3847 57.8698 44.6114C57.8245 44.43 57.9151 44.3394 58.1418 44.3394C58.1418 44.3847 58.2325 44.43 58.2325 44.3394C57.9605 44.294 58.0512 43.9767 57.8245 43.886Z" fill="#A59B95"/>
<path d="M62.6302 44.8382C62.6302 44.7929 62.6302 44.7475 62.7208 44.7475C62.7208 44.7929 62.8115 44.8382 62.8115 44.7475C62.7209 44.5662 62.3582 44.7475 62.6302 44.8382Z" fill="#A59B95"/>
<path d="M63.9449 33.8213C64.1263 33.7306 64.1263 33.5493 64.3076 33.4586C64.2623 33.4586 64.217 33.4586 64.217 33.3679H64.0356C64.217 33.6399 63.7636 33.776 63.9449 33.8213Z" fill="#A59B95"/>
<path d="M63.5369 34.0025C63.4916 33.7758 63.945 34.0479 63.8089 33.7305C63.6276 33.6852 63.3556 34.0025 63.5369 34.0025Z" fill="#A59B95"/>
<path d="M61.8594 47.4224C61.9048 47.6944 61.4514 47.513 61.4061 47.6944C61.6781 47.7397 62.1315 47.5584 61.8594 47.4224Z" fill="#A59B95"/>
<path d="M55.5123 48.3291H55.467C55.603 48.4198 55.739 48.5104 55.5123 48.3291Z" fill="#A59B95"/>
<path d="M55.4216 48.4198C55.4216 48.3745 55.4216 48.3291 55.467 48.3291C55.3763 48.2838 55.3309 48.2838 55.4216 48.4198Z" fill="#A59B95"/>
<path d="M61.0887 48.2385C60.59 48.0571 60.7714 48.5558 61.0887 48.2385V48.2385Z" fill="#A59B95"/>
<path d="M54.0615 36.9495C53.2001 37.1308 54.4242 36.9495 54.0615 36.9495V36.9495Z" fill="#A59B95"/>
<path d="M36.7882 58.0765C36.7882 57.9858 36.4708 57.8045 36.5162 57.9858C36.6975 58.2578 37.5589 58.0765 36.7882 58.0765Z" fill="#A59B95"/>
<path d="M45.7196 59.0286C45.9009 59.0286 46.2636 58.8019 46.0822 58.7566C46.1276 58.9833 45.5835 58.6659 45.7196 59.0286Z" fill="#A59B95"/>
<path d="M36.2442 59.7992C36.3348 59.5272 36.5615 59.7538 36.6068 59.6178C36.4708 59.3911 35.9721 59.6632 36.2442 59.7992Z" fill="#A59B95"/>
<path d="M65.4864 39.9417C65.4864 40.0777 64.8517 40.123 65.1237 40.2137C65.2144 40.123 65.8491 40.1683 65.4864 39.9417Z" fill="#A59B95"/>
<path d="M40.6418 61.25C40.6418 61.4767 40.1431 61.2953 40.1885 61.6127C40.4151 61.6127 40.8685 61.3407 40.6418 61.25Z" fill="#A59B95"/>
<path d="M52.0667 42.662C52.0667 42.526 52.4294 42.39 52.1574 42.2993C52.1574 42.39 51.8854 42.662 52.0667 42.662Z" fill="#A59B95"/>
<path d="M45.9462 61.6127C45.7649 61.522 45.5382 61.8847 45.7649 61.8847C45.7649 61.7034 45.9009 61.7034 45.9462 61.6127Z" fill="#A59B95"/>
<path d="M54.9683 44.6113C54.6963 44.5206 54.7416 44.7473 54.6056 44.7926C54.1522 44.9286 55.0136 44.8833 54.9683 44.6113Z" fill="#A59B95"/>
<path d="M59.91 45.3822C59.774 45.2462 59.4566 45.1555 59.4566 45.3822C59.6833 45.2915 60.182 45.5182 59.91 45.3822Z" fill="#A59B95"/>
<path d="M62.3582 45.4276C62.4942 45.4276 62.4488 45.6543 62.6302 45.6089C62.6755 45.4276 62.3128 45.2916 62.3582 45.4276Z" fill="#A59B95"/>
<path d="M61.7688 46.2888C61.7235 46.4248 61.2248 46.5608 61.4514 46.6515C61.5421 46.5608 62.0861 46.4702 61.7688 46.2888Z" fill="#A59B95"/>
<path d="M61.8141 47.2409C61.8141 47.0595 62.0408 47.0595 62.0862 46.8782H61.9048C61.8141 46.9235 61.6781 47.2862 61.8141 47.2409Z" fill="#A59B95"/>
<path d="M45.2209 49.0997C45.2209 49.0543 45.2209 49.009 45.3115 49.009C45.3115 49.0543 45.4022 49.0997 45.4022 49.009C45.3569 49.009 45.3115 49.009 45.3115 48.9183C45.3569 48.9183 45.4022 48.8276 45.3115 48.8276C45.3115 48.9636 44.9488 49.0543 45.2209 49.0997Z" fill="#A59B95"/>
<path d="M44.4955 49.2358C43.9968 49.4172 44.3141 49.6892 44.4955 49.2358V49.2358Z" fill="#A59B95"/>
<path d="M53.7895 50.7771V50.5958C53.6082 50.7318 53.4268 50.3691 53.4268 50.5958C53.6535 50.5505 53.5175 50.8678 53.6988 50.8678C53.6988 50.8225 53.7442 50.7771 53.7895 50.7771Z" fill="#A59B95"/>
<path d="M47.533 51.1853C47.533 51.3213 47.4424 51.3213 47.4424 51.4573H47.6237C47.7144 51.3213 47.7144 51.2306 47.533 51.1853Z" fill="#A59B95"/>
<path d="M58.1418 50.9585C58.1418 50.7772 58.4139 50.8679 58.4139 50.6865H58.1418C58.1418 50.8225 58.0058 50.9132 58.1418 50.9585Z" fill="#A59B95"/>
<path d="M51.84 51.3213C51.84 51.5026 51.6133 51.5026 51.568 51.684C51.7493 51.684 52.0667 51.412 51.84 51.3213Z" fill="#A59B95"/>
<path d="M43.0447 52.5453C43.362 52.5453 43.362 52.3186 43.5887 52.2279C43.3167 52.0919 43.226 52.4546 43.0447 52.5453Z" fill="#A59B95"/>
<path d="M40.7325 55.0841C40.7778 55.0841 40.8232 54.9934 40.7325 54.9934C40.5058 55.3108 40.8232 55.8095 40.7325 55.0841Z" fill="#A59B95"/>
<path d="M39.5084 56.0364C39.5084 55.9004 39.8711 55.6283 39.6444 55.583C39.6898 55.7644 39.2364 55.9004 39.5084 56.0364Z" fill="#A59B95"/>
<path d="M63.4462 40.0778L63.4916 40.0324C63.6276 40.0778 63.7636 40.1231 63.8543 40.0778C63.7183 40.0325 63.8996 39.8511 63.8089 39.7604L63.7183 39.8511V39.7151C63.4462 39.6244 63.5369 39.4431 63.3102 39.5337C63.1289 39.6698 63.2196 39.8511 63.3556 39.9418C63.3556 39.9871 63.4009 40.0778 63.4462 40.0778Z" fill="#A59B95"/>
<path d="M59.5926 37.8561C59.4566 37.8561 59.5473 37.4481 59.4113 37.6748C59.5019 37.6748 59.4113 38.0828 59.5926 37.8561Z" fill="#A59B95"/>
<path d="M60.1367 37.4029C60.4087 37.1762 59.9553 36.5869 60.0007 36.8589C60.182 36.9949 59.8193 37.3122 60.1367 37.4029Z" fill="#A59B95"/>
<path d="M37.9216 56.399C37.9216 56.535 37.967 56.7617 38.0123 56.5803C38.103 56.3083 37.6496 56.263 37.9216 56.399Z" fill="#A59B95"/>
<path d="M47.6691 56.2176C47.6237 55.9909 48.1678 56.2629 48.0317 55.9456C47.8504 55.9456 47.4877 56.1269 47.6691 56.2176Z" fill="#A59B95"/>
<path d="M49.1198 56.3082C48.9838 56.3535 49.1198 56.3989 49.2105 56.3082C49.7545 56.3535 49.2105 56.0362 49.1198 56.3082Z" fill="#A59B95"/>
<path d="M57.2805 57.5777C57.1898 57.7137 57.1444 57.8044 57.1898 57.8044C57.2351 57.8044 57.2805 57.8044 57.3258 57.759C57.3711 57.759 57.4165 57.8044 57.4618 57.8497C57.4165 57.8044 57.4165 57.759 57.4618 57.7137C57.5071 57.6684 57.5525 57.6684 57.5525 57.5777C57.5978 57.5324 57.6432 57.487 57.5978 57.487C57.5071 57.3963 57.3711 57.487 57.2805 57.5777Z" fill="#A59B95"/>
<path d="M51.8854 57.8951C51.704 57.8497 51.432 58.1671 51.6133 58.1671C51.6587 58.0311 51.9307 58.3031 51.8854 57.8951Z" fill="#A59B95"/>
<path d="M31.2118 59.0286C31.2118 58.9379 31.0758 58.9833 31.1211 59.1193C31.4385 59.3006 31.5745 59.1646 31.2118 59.0286Z" fill="#A59B95"/>
<path d="M41.866 58.4844C41.9113 58.7111 41.5939 58.5751 41.5939 58.7564C41.866 58.8471 42.0473 58.4844 41.866 58.4844Z" fill="#A59B95"/>
<path d="M56.5551 58.167C56.8724 58.2124 56.8271 57.9857 57.0084 57.895C56.7817 57.895 56.6004 57.9857 56.5551 58.167Z" fill="#A59B95"/>
<path d="M31.3025 59.3005C31.0304 59.3912 30.5771 59.2552 30.6677 59.4365C30.9398 59.5272 31.2118 59.5726 31.3025 59.3005Z" fill="#A59B95"/>
<path d="M45.2209 58.8472C45.1302 58.9378 45.4929 58.9378 45.4929 58.9378C45.9916 59.2099 45.3569 58.7565 45.2209 58.8472Z" fill="#A59B95"/>
<path d="M56.3284 58.439C56.147 58.3937 55.875 58.711 56.0564 58.711C56.011 58.5297 56.283 58.6204 56.3284 58.439Z" fill="#A59B95"/>
<path d="M30.4411 59.8899C30.4864 60.1619 29.9877 59.9352 30.0784 60.2526C30.3504 60.2979 30.6224 59.9806 30.4411 59.8899Z" fill="#A59B95"/>
<path d="M65.9398 33.1866C66.1211 32.9146 66.0304 33.6399 66.2571 33.3679C66.2571 33.2319 65.8038 32.8239 65.9398 33.1866Z" fill="#A59B95"/>
<path d="M43.7247 59.8447C43.226 59.7087 43.498 59.346 43.7247 59.8447V59.8447Z" fill="#A59B95"/>
<path d="M54.5602 59.2553C54.5602 59.1646 54.5149 59.0286 54.3789 59.0739C54.3336 59.618 55.0136 58.9833 54.5602 59.2553Z" fill="#A59B95"/>
<path d="M64.3983 37.3123C64.2623 37.8563 64.6704 37.7203 64.3983 37.3123V37.3123Z" fill="#A59B95"/>
<path d="M60.4087 46.561C60.1367 46.1529 60.5447 46.0169 60.4087 46.561V46.561Z" fill="#A59B95"/>
<path d="M35.1107 61.7488C34.8841 61.7941 35.2921 61.3407 35.0201 61.2954C35.0201 61.5221 34.7934 61.5221 34.6574 61.6581C34.7481 61.7034 35.1107 61.9301 35.1107 61.7488Z" fill="#A59B95"/>
<path d="M37.967 61.8848C37.695 62.0208 37.8763 61.6128 37.6043 61.7035C37.5589 61.9302 37.967 62.0662 37.967 61.8848Z" fill="#A59B95"/>
<path d="M38.511 61.7939C38.5563 61.93 38.0576 61.9753 38.3297 62.066C38.3297 61.93 38.8737 61.93 38.511 61.7939Z" fill="#A59B95"/>
<path d="M64.9424 41.5285C64.5797 41.0298 64.625 41.6192 64.9424 41.5285V41.5285Z" fill="#A59B95"/>
<path d="M15.4799 65.7383L15.5252 65.8743L15.3892 65.829C15.2079 66.0103 15.5252 66.1463 15.6613 66.2823L15.7519 66.3277L15.8426 66.373C15.7973 66.0556 16.2506 66.101 16.2506 65.829C15.9333 66.0103 15.8426 65.7383 15.4799 65.7383Z" fill="#A59B95"/>
<path d="M50.0719 62.7915C50.2986 62.7462 50.0266 63.1995 50.3439 63.0635C50.3439 62.8822 50.0719 62.6101 50.0719 62.7915Z" fill="#A59B95"/>
<path d="M34.4307 64.9676C34.7027 65.013 34.3854 65.2396 34.4307 65.421C34.7027 65.421 34.6574 65.149 34.7934 65.0583C34.7027 65.0583 34.476 64.7409 34.4307 64.9676Z" fill="#A59B95"/>
<path d="M24.3206 65.6024C24.5926 65.5571 24.2299 66.0558 24.4113 65.7838C24.5473 65.7838 24.5019 65.6024 24.5926 65.6024C24.6379 65.7384 24.7286 65.6024 24.774 65.5118C24.6379 65.5571 24.3206 65.4211 24.3206 65.6024Z" fill="#A59B95"/>
<path d="M21.7817 67.053C21.3737 67.6424 21.9631 66.8717 21.7817 67.053V67.053Z" fill="#A59B95"/>
<path d="M30.7131 69.7279L30.5771 69.7732L30.5317 69.6372C30.4411 69.7279 30.3504 69.8186 30.3051 69.9092H31.0758C31.0758 69.8639 31.1211 69.8186 31.1211 69.7732C31.0758 69.7279 30.9398 69.6825 30.7131 69.7279Z" fill="#A59B95"/>
<path d="M29.1263 69.6827C28.9903 69.592 28.8089 69.728 28.7183 69.864H28.8543C28.8543 69.7734 29.081 69.8187 29.1263 69.6827Z" fill="#A59B95"/>
</svg>
