<svg width="70" height="56" viewBox="0 0 70 56" fill="none" xmlns="http://www.w3.org/2000/svg">
<path d="M69.6992 27.8497C69.2265 27.5918 67.5936 27.291 66.5623 27.1192C68.496 24.5409 68.539 23.6385 68.539 23.4666V23.2088L68.2812 23.1228C63.4254 21.1032 58.2689 24.8417 57.3235 25.5722C56.6789 25.5292 55.6906 25.4863 54.9601 25.5292C61.1479 16.3334 63.0387 9.62991 63.0387 9.58694L63.1676 9.07128L62.6519 9.02831C58.3978 8.77048 55.6906 10.0166 54.5734 10.7042C54.2726 9.28614 53.542 8.12591 53.4991 8.03997L53.3702 7.82512L53.1123 7.86809C45.8072 8.68454 42.1117 11.7355 40.7366 13.1965C39.4475 4.68822 33.8183 1.07865 33.3886 0.777849L33.0878 0.477051L32.83 0.777849C29.3493 4.25851 27.2867 10.2745 26.7281 12.1222C25.7827 11.5636 25.1381 11.5206 24.7514 11.5636C24.4076 11.1339 24.0638 10.7472 23.7201 10.4034C22.1731 8.68454 20.7551 7.6962 20.6262 7.61026L20.5832 7.65323L20.1105 7.35243L19.9816 7.95403C19.7667 8.72751 19.8097 10.919 19.8097 12.2511C16.2861 9.45802 12.5905 9.24317 11.7741 9.24317C9.88336 7.78215 8.20749 8.38374 8.12155 8.42671L7.77778 8.55563L7.86372 8.94237C10.6568 19.8141 15.7274 25.5722 18.7354 28.1934C16.8017 27.5059 14.3094 26.5176 11.6452 25.0136C7.73481 22.822 4.85574 22.908 3.09392 23.3807C1.16022 23.8963 0.214856 24.9706 0.171884 25.0136L0 25.2284L0.128913 25.4863C2.8361 31.5452 7.09024 34.9399 10.485 36.8306C9.10988 38.4635 8.29343 40.3113 8.29343 42.4599C8.29343 51.6127 20.841 55.5231 36.3536 55.5231C51.8662 55.5231 64.4137 51.14 64.4137 42.4599C64.4137 40.2254 63.5114 38.2487 61.8355 36.5298C67.6366 33.6937 69.8711 28.4942 69.8711 28.4513L70 28.1075L69.6992 27.8497ZM67.6366 23.7674C67.5077 24.1971 67.035 25.1425 65.6599 26.9473C65.6599 26.9473 65.6599 26.9902 65.6169 26.9902C65.574 27.0762 65.531 27.1192 65.4451 27.2051L64.9724 27.7637H65.0153C62.2652 31.2444 56.0344 35.5845 53.585 36.229C51.6943 36.7447 46.6237 36.6158 44.2173 36.4869C45.6783 35.4126 47.0104 33.9516 48.2566 32.4906C49.0301 32.0608 55.8625 27.9786 57.6673 26.3027C57.8392 26.2168 62.9527 22.1345 67.6366 23.7674ZM52.3818 39.6238C52.9834 39.7957 53.8858 40.0965 54.6163 40.2254C53.4561 41.7294 50.1044 45.7686 47.3112 45.8546C43.7017 45.9835 38.717 43.4912 36.6974 39.1511L36.1387 37.9909L35.8809 39.237C35.8809 39.5808 34.1621 47.0148 23.849 46.8859C19.9816 46.8429 17.6611 46.2843 17.1885 46.1554C15.5985 44.7373 13.9227 42.9755 13.8367 42.4599C13.7078 41.9012 13.364 40.1394 16.1572 38.9792C16.5439 39.0222 16.8877 39.0222 17.2744 39.0222C23.1614 39.0222 30.5525 35.9282 32.3573 35.1548C32.4432 35.2837 32.5292 35.4556 32.6151 35.5415C34.248 37.819 38.717 37.9909 39.0608 38.0338C39.3186 38.0768 39.5764 38.0768 39.7913 38.0768C40.8656 38.0768 41.8109 37.819 42.7133 37.4322C43.0571 37.4752 52.3818 39.6238 52.3818 39.6238ZM20.7121 13.1535C20.6691 12.2511 20.6262 10.0166 20.7551 8.81345C21.1418 9.11425 21.7434 9.6299 22.5169 10.4034C24.2787 12.1652 26.3843 15.0013 26.7281 18.3101H26.771C26.9429 19.1265 27.2007 19.9 27.5445 20.6305C25.9116 19.5133 23.9349 18.5679 21.6145 18.0952C20.884 16.4193 20.7121 13.2395 20.7121 13.1535ZM48.5574 17.2358C48.6863 20.6305 47.7409 24.1971 47.4831 25.1855C46.5378 25.3144 45.3775 25.9589 44.8619 26.2597C44.0025 25.7871 42.0688 25.7011 40.9085 25.7011C41.3382 24.455 41.3812 22.6502 41.3812 22.2205C42.8852 16.0756 46.3659 13.4973 47.4831 12.8098C48.2136 14.0559 48.5144 15.6029 48.5574 17.2358ZM47.698 31.889C45.1627 34.768 42.7993 37.5182 39.1897 37.1314H39.1467C39.1037 37.1314 34.8066 36.9596 33.3456 35.0259C33.1737 34.811 33.0448 34.5532 32.9159 34.2953H32.9589L32.83 34.1235C32.4862 33.393 32.2713 32.4906 32.4002 31.5882C32.5721 30.8577 33.0448 29.9123 33.9902 28.881L34.1621 28.6661C35.2363 27.8926 36.7833 27.291 38.76 26.9902C39.6194 26.7754 40.4358 26.6895 41.2093 26.6895C42.9282 26.6895 44.2603 27.0762 44.604 27.2051L44.7759 27.377L45.0767 27.2051C45.8932 26.6895 47.4401 25.9589 48.1277 26.1738C48.4285 26.2597 48.8582 26.7324 49.073 27.5059C49.2449 28.1505 49.4598 29.8693 47.698 31.889ZM40.1351 15.3451C40.6077 18.1382 40.5218 20.4157 40.4358 21.404C39.9202 21.2751 39.4475 21.1891 38.9748 21.1032C35.1934 20.1578 32.744 20.7594 31.283 21.447C30.5525 21.7478 30.0368 22.0486 29.736 22.2634L29.0485 21.5759C23.9349 13.884 31.6268 3.61394 33.1737 1.68024C37.4708 5.28982 39.3186 10.3174 40.0491 14.4427L40.1351 15.3451ZM33.0878 28.3653C32.5292 28.881 32.0994 29.4826 31.7986 30.1701C31.6268 30.5569 31.5408 30.9866 31.4979 31.3733C31.24 32.3616 31.3689 33.1351 31.5408 33.6078C25.267 34.2524 21.1418 30.7287 19.337 23.1658C18.7784 20.8454 19.7238 19.2554 20.1105 18.7398C28.4039 19.6852 32.2713 26.6895 33.0878 28.3653ZM56.3352 26.3457C54.8312 27.4629 52.2529 29.0958 50.3192 30.299C51.3505 29.5685 52.8975 28.2364 54.3585 26.3457H56.3352ZM62.0933 9.80179C61.4917 11.5636 59.2572 17.7085 53.7999 25.6581C52.4248 27.4629 50.9208 28.7521 49.8895 29.4826C50.1044 28.4513 49.9754 27.6778 49.8895 27.2481C49.6317 26.3027 49.073 25.5292 48.4285 25.3144H48.3425C48.6863 24.1542 49.5457 20.8024 49.4168 17.4507C49.9325 16.6342 51.8662 13.6692 53.8858 12.1652V12.2511L54.5304 11.7355C54.5734 11.6925 57.1516 9.67288 62.0933 9.80179ZM52.9405 8.68454C53.1983 9.11425 53.671 10.1026 53.8428 11.1769C52.081 12.3371 50.3192 14.6146 49.3738 16.0326C49.202 14.5716 48.7723 13.1535 47.9988 11.9933L47.7839 11.6925L47.4401 11.8644C47.2683 11.9503 43.5298 13.7981 41.3382 19.4703C41.3382 18.0952 41.2093 16.2904 40.8656 14.2708C41.4242 13.5833 44.8189 9.67288 52.9405 8.68454ZM26.6851 13.0676C26.5991 13.5403 26.5562 14.013 26.5132 14.4856C26.1694 13.7551 25.7827 13.0676 25.353 12.466C25.6538 12.509 26.0835 12.6809 26.6851 13.0676ZM8.80908 9.07128C9.32474 9.02831 10.3131 9.07128 11.3874 9.9307L11.5163 10.0166H11.6882C11.7311 10.0166 16.0712 9.9307 19.8956 13.3254C19.9386 13.97 20.1105 16.2475 20.6262 17.8374C20.4113 17.7944 20.2394 17.7944 20.0246 17.7515L19.8097 17.7085L19.6808 17.8804C19.5948 17.9663 17.833 20.0719 18.6065 23.2518C19.0362 25.1425 19.6378 26.7754 20.3683 28.1934C17.7041 26.2597 11.903 20.6735 8.80908 9.07128ZM1.03131 25.3573C1.84776 24.6268 5.19951 22.2634 11.2584 25.7011C14.5672 27.5489 17.6182 28.6232 19.6808 29.3537C20.3683 29.6115 20.884 29.7834 21.2707 29.9553L21.3137 29.9123C23.4193 33.0062 26.3843 34.5532 30.1657 34.5532C30.7244 34.5532 31.283 34.5102 31.8416 34.4672C29.6501 35.4126 21.8723 38.5065 16.372 38.1198L16.2431 38.0768C16.1142 38.0338 6.05893 36.229 1.03131 25.3573ZM51.6513 38.6784C50.1044 38.4206 47.9128 37.9049 46.108 37.4322C46.8815 37.4752 47.7839 37.4752 48.6433 37.4752C50.663 37.4752 52.7256 37.3893 53.8428 37.0885C56.55 36.358 63.2965 31.6741 66.0037 27.9356C66.992 28.1075 68.2382 28.3224 68.8828 28.4942C64.4567 36.8306 51.6513 38.6784 51.6513 38.6784Z" fill="#DDD0C5"/>
</svg>
