<svg width="64" height="70" viewBox="0 0 64 70" fill="none" xmlns="http://www.w3.org/2000/svg">
<path d="M42.8714 44.191C39.3859 45.8092 36.0249 44.3985 35.9834 44.357C35.7759 44.274 35.527 44.357 35.444 44.5644C35.361 44.7719 35.444 45.0209 35.6514 45.1038C35.7344 45.1453 37.2282 45.8092 39.3029 45.8092C40.4647 45.8092 41.834 45.6018 43.2448 44.9379C43.4523 44.8549 43.5353 44.6059 43.4523 44.3984C43.3278 44.191 43.0788 44.108 42.8714 44.191Z" fill="#DDD0C5"/>
<path d="M28.0166 44.357C27.9751 44.357 24.6141 45.8092 21.1286 44.191C20.9211 44.108 20.6722 44.191 20.5892 44.3984C20.5062 44.6059 20.5892 44.8549 20.7966 44.9379C22.2074 45.6018 23.5767 45.8092 24.7386 45.8092C26.8132 45.8092 28.2655 45.1453 28.39 45.1038C28.5975 45.0209 28.6805 44.7719 28.5975 44.5644C28.473 44.357 28.224 44.274 28.0166 44.357Z" fill="#DDD0C5"/>
<path d="M38.058 34.8134C38.1825 34.6474 38.1825 34.44 38.058 34.274C36.5228 32.4897 34.2821 31.4939 31.9585 31.4939C29.6348 31.4939 27.3941 32.4897 25.8589 34.274C25.7344 34.44 25.7344 34.6474 25.8589 34.8134C27.3941 36.5976 29.6348 37.5935 31.9585 37.5935C34.2821 37.5935 36.4813 36.5976 38.058 34.8134ZM30.4232 34.5229C30.4232 33.6931 31.0871 33.0292 31.917 33.0292C32.7468 33.0292 33.4107 33.6931 33.4107 34.5229C33.4107 35.3528 32.7468 36.0167 31.917 36.0167C31.0871 36.0167 30.4232 35.3943 30.4232 34.5229ZM31.0871 32.3653C30.2157 32.6972 29.5933 33.5686 29.5933 34.5644C29.5933 35.5603 30.2157 36.3902 31.0871 36.7636C29.4273 36.5561 27.8506 35.8093 26.6887 34.5644C27.8506 33.3196 29.4273 32.5727 31.0871 32.3653ZM32.7468 36.7221C33.6182 36.3902 34.2406 35.5188 34.2406 34.5229C34.2406 33.5271 33.6182 32.6972 32.7468 32.3238C34.4066 32.5312 35.9833 33.2781 37.1452 34.5229C35.9833 35.7678 34.4481 36.5146 32.7468 36.7221Z" fill="#DDD0C5"/>
<path d="M63.1203 31.0788C63.1203 13.9004 49.1784 0 32 0C14.8215 0 0.879639 13.9004 0.879639 31.0788C0.879639 43.1535 7.43566 53.527 17.5186 58.6722C18.5975 61.4938 20.4647 64.0249 23.0788 66.1826C23.5352 66.5975 23.9502 66.9295 24.3236 67.3029C26.1908 69.0042 27.3112 70 31.668 70C36.8132 70 36.8962 70 38.39 69.0042C39.7593 68.0913 43.9917 64.3568 44.9875 62.8631C45.7759 61.6598 47.1452 59.668 47.6431 57.8838C56.8132 52.4066 63.1203 42.4066 63.1203 31.0788ZM48.805 31.4108C48.307 29.917 45.9004 26.6805 44.4896 25.6432C42.6639 24.2739 27.2697 19.4191 18.556 22.3237C18.556 22.3237 18.5145 22.3237 18.5145 22.3651C17.8091 22.6971 17.8091 23.7759 17.8091 25.1867C17.8091 26.2656 17.8091 27.5104 17.3942 28.0913C17.1867 28.4232 16.8962 28.7552 16.6473 29.0871C15.8174 30.083 14.9045 31.2033 14.5726 33.361C14.2821 35.0622 14.4896 37.3859 14.7386 39.0042C14.5726 38.8382 14.3651 38.6722 14.1576 38.5477C13.7012 37.1784 12.4149 33.1535 12.4149 30.166C12.4149 26.3071 12.4149 17.3029 20.6722 13.6515C25.9834 11.2863 35.2365 10.3734 41.8755 13.3195C45.5684 14.9378 48.0581 17.5104 49.1784 20.9544C52.3319 30.4149 49.9668 36.6805 49.2614 38.2573C49.1369 38.3403 49.0539 38.4232 48.9294 38.5477C49.0124 36.3485 49.1784 32.4896 48.805 31.4108ZM47.0622 51.9502V56.5975C47.0622 58.3403 45.2365 61.0788 44.3651 62.4066C43.4937 63.7344 39.3859 67.3859 37.9751 68.3402C36.6888 69.2116 36.6888 69.2116 31.7095 69.2116C27.6431 69.2116 26.6888 68.3402 24.9045 66.722C24.5311 66.39 24.1162 66.0166 23.6182 65.6017C20.5892 63.0705 18.5975 60 17.7261 56.556C17.5601 55.8506 17.3527 53.029 17.2697 51.9917C17.2697 51.7842 17.0622 51.6183 16.8547 51.6183C16.0249 51.6183 14.6971 48.5892 13.9917 45.8921C13.8672 45.3942 13.6182 44.6888 13.4108 43.9834C12.9128 42.5311 12.0415 39.8755 12.4979 39.3361C12.7884 39.1286 13.0788 39.0456 13.4108 39.1286C14.1991 39.3361 14.9045 40.5809 15.112 41.0373C15.195 41.2448 15.4025 41.3278 15.6099 41.2863C15.8174 41.2033 15.9419 41.0373 15.9004 40.8299C15.9004 40.7884 14.9875 36.2241 15.444 33.5685C15.7759 31.6183 16.5643 30.6224 17.3527 29.6681C17.6431 29.3361 17.8921 29.0042 18.141 28.6307C18.6805 27.8423 18.6805 26.5145 18.6805 25.2697C18.6805 24.6058 18.6805 23.361 18.8879 23.195C27.1867 20.4564 42.2904 25.1037 44.0332 26.39C45.278 27.3444 47.6431 30.4564 48.0581 31.7427C48.4315 32.8216 48.1825 38.0083 48.0581 39.917C48.0581 40.1245 48.1825 40.2905 48.3485 40.332C48.556 40.3734 48.722 40.2905 48.8464 40.1245C48.8464 40.1245 49.6763 38.5062 50.7967 38.5062H50.8796C51.2116 38.4232 51.3361 38.5477 51.3776 38.5892C51.9585 39.1286 51.6265 41.3278 51.4605 42.6556C51.3776 43.278 51.2946 43.7759 51.2946 44.1494C51.2946 45.1037 50.5062 47.1784 49.9668 48.7137C49.7593 49.2531 49.5933 49.7095 49.4689 50.0415C49.0954 51.2033 47.4357 51.6183 47.4357 51.6183C47.1867 51.5768 47.0622 51.7427 47.0622 51.9502Z" fill="#DDD0C5"/>
</svg>
