<svg width="71" height="70" viewBox="0 0 71 70" fill="none" xmlns="http://www.w3.org/2000/svg">
<path fill-rule="evenodd" clip-rule="evenodd" d="M70.6783 31.0737C70.4567 29.8068 70.3681 28.5398 70.0579 27.2729C69.7034 26.0496 69.4819 24.7826 68.9944 23.603C68.5956 22.3798 68.1525 21.1565 67.5764 20.0206L66.7345 18.2731L65.7596 16.6129C65.1392 15.477 64.3416 14.4722 63.5883 13.4237C63.2338 12.8994 62.7907 12.4188 62.3476 11.9383L61.0625 10.4966C60.1319 9.5791 59.1571 8.70533 58.1822 7.83157C57.1187 7.08887 56.0995 6.2151 54.9917 5.55978C53.8396 4.90445 52.7761 4.16175 51.5353 3.63749L49.7628 2.80742C49.1425 2.54529 48.5221 2.37053 47.9017 2.1084L46.0406 1.45308L44.1352 0.972507C42.8501 0.623001 41.5207 0.448248 40.2357 0.273495L39.2608 0.142429L38.2859 0.0987415L36.2919 0.0113646C34.9625 -0.0323237 33.6331 0.0550527 32.3481 0.186118C31.0187 0.317183 29.7336 0.535624 28.4486 0.797754L28.3156 0.841442V0.88513C25.9228 1.40939 23.5742 2.19578 21.2256 3.15692C18.2124 4.46757 15.4207 6.25879 12.8506 8.31214C10.1919 10.4529 7.97623 13.0305 6.02649 15.7391C4.12105 18.5352 2.65874 21.5934 1.59525 24.8263C0.576061 28.0592 0.132937 31.4669 0 34.8746C0.0443124 38.2386 0.487436 41.69 1.46231 44.9666C2.48149 48.1996 3.9438 51.3451 5.80492 54.1412C7.75467 56.9372 10.0146 59.4711 12.5847 61.6119C15.1992 63.6652 18.0352 65.5001 21.0484 66.8108C24.0616 68.0777 27.2078 69.0389 30.354 69.4321C31.9049 69.7379 33.5002 69.7379 35.0511 69.8253C35.8931 69.8689 36.6021 69.7816 37.3554 69.7816C38.0644 69.7379 38.7734 69.7379 39.4824 69.6505L39.2165 70L40.9447 69.6505L44.0908 69.0389L47.1484 68.1651L50.1173 67.0292C51.0922 66.5923 52.0228 66.1117 52.9533 65.6312L55.6564 63.971L58.1822 62.0924C58.9798 61.3934 59.7774 60.6944 60.5308 59.9954C61.2397 59.209 61.9487 58.4663 62.6577 57.6799C63.2781 56.8498 63.9428 56.0634 64.5632 55.1897C65.1392 54.3159 65.7153 53.4421 66.247 52.5684C66.7345 51.6509 67.2219 50.7335 67.665 49.816C68.0639 48.8549 68.507 47.9374 68.8172 46.9763C69.1274 45.9714 69.4819 45.0103 69.7477 44.0492C69.9693 43.0443 70.2352 42.0395 70.4124 41.0347C70.5453 40.0298 70.6783 39.025 70.8112 37.9765L70.9442 34.9183C70.8112 33.6077 70.8112 32.3407 70.6783 31.0737ZM48.8323 50.4713C48.788 50.0345 48.6993 49.5976 48.5664 49.1607C48.4335 48.7238 48.3448 48.2869 48.1676 47.8937C47.9903 47.5005 47.8574 47.02 47.6358 46.6705L47.0155 45.5783C46.4837 44.7919 45.9963 44.1365 45.4645 43.4375C44.9328 42.7385 44.2681 42.1269 43.692 41.5152C43.0717 40.9036 42.3627 40.3793 41.698 39.7677C40.989 39.2871 40.2357 38.7629 39.5267 38.326C38.02 37.4522 36.4248 36.7095 34.8739 35.9668C33.3229 35.2241 31.7277 34.5251 30.3983 33.5203L29.8666 33.1708L29.3791 32.7339C29.0689 32.4718 28.7588 32.1659 28.4486 31.9038L27.6509 30.9427L27.2521 30.4621L26.9419 29.9378C26.4988 29.2388 26.0557 28.5398 25.7898 27.7097C25.4796 26.9234 25.1251 26.1807 24.9479 25.3506C24.4161 23.7778 24.1946 22.0739 23.9287 20.4138C23.3526 17.0498 23.5299 13.6421 24.3718 10.3655C25.2138 7.17624 26.6761 4.16175 28.6258 1.45308C29.2462 1.32201 29.8666 1.23464 30.4426 1.19095C30.6642 1.14726 30.9301 1.10357 31.1516 1.10357C31.4618 1.05988 31.8163 1.01619 32.1265 1.01619C32.2594 1.01619 32.4367 0.972507 32.5696 0.972507C32.7469 0.972507 32.9241 0.972507 33.1014 0.928819C33.5445 0.928819 33.9876 0.88513 34.3864 0.88513C34.9625 0.88513 35.5829 0.885131 36.1589 0.928819L38.0644 1.05988L39.0392 1.10357L39.9698 1.27832C41.2549 1.49677 42.4956 1.62783 43.7363 2.02103L45.5975 2.5016C46.2178 2.67635 46.7939 2.93848 47.4143 3.15692C47.9903 3.37536 48.6107 3.55012 49.1868 3.81225L50.915 4.64232C52.1114 5.1229 53.1749 5.82191 54.2827 6.47723C55.3905 7.08887 56.3654 7.91894 57.4289 8.66165C58.4038 9.49172 59.3786 10.3218 60.3092 11.1519L61.6386 12.5062C62.0817 12.9431 62.5248 13.4237 62.9236 13.9479C63.7212 14.9528 64.5632 15.9139 65.1836 17.0061L66.2027 18.6226L67.089 20.3264C67.7094 21.4186 68.1525 22.6419 68.6399 23.8215C69.1717 25.0011 69.3932 26.268 69.7477 27.4476C70.1022 28.6709 70.1908 29.9378 70.4124 31.2048C70.5453 32.4718 70.5897 33.7387 70.6783 35.0057L70.501 38.0639C70.3681 39.0687 70.1909 40.0735 70.0579 41.0784C69.8364 42.0832 69.5705 43.0443 69.3489 44.0492C69.083 45.0103 68.6842 45.9715 68.3297 46.9326C67.9309 47.8937 67.4878 48.7675 67.0447 49.7286C66.5572 50.6461 66.0255 51.4762 65.538 52.3936C65.0063 53.2674 64.3859 54.0538 63.8099 54.8839C63.1895 55.6702 62.4805 56.4566 61.8601 57.243C61.1511 57.9857 60.3978 58.6847 59.6888 59.3838L57.3403 61.3497L54.8588 63.0973L52.2 64.6263L49.4527 65.937L46.5723 67.0292L43.6034 67.8593L42.2297 68.1214C44.0022 65.8496 45.5975 63.4031 46.7939 60.7818C47.5472 59.209 48.079 57.5488 48.4778 55.845C48.9652 54.0101 49.0981 52.2189 48.8323 50.4713ZM21.4472 65.8933C18.4783 64.67 15.7309 62.9225 13.1608 60.9128C10.635 58.8595 8.41936 56.3693 6.51392 53.7043C4.6528 50.9519 3.19049 47.9374 2.127 44.7919C1.10781 41.6026 0.664687 38.2823 0.531749 34.9183C0.576062 31.5543 1.01919 28.1903 1.99406 25.0011C3.01324 21.8118 4.43124 18.7536 6.29236 15.9576C8.1978 13.2052 10.502 10.7587 13.0278 8.66165C15.6423 6.65198 18.3896 4.90445 21.3586 3.68118C23.4413 2.8511 25.5683 2.15209 27.7396 1.67152C26.0557 4.3365 24.7263 7.26362 23.9287 10.3218C23.1311 13.6421 22.9538 17.0935 23.397 20.5012C23.6628 22.1613 23.8844 23.8652 24.4161 25.4816C24.5934 26.3117 24.9036 27.1418 25.2581 27.9282C25.5239 28.7583 25.9671 29.501 26.4102 30.2437L26.7204 30.8116L27.1192 31.3359L27.9168 32.3844C28.227 32.6902 28.5372 32.996 28.8917 33.3018L29.3791 33.7387L29.9109 34.1319C31.3289 35.2241 32.9241 35.9668 34.4307 36.7532C35.9817 37.4959 37.5326 38.2823 38.9506 39.1561C39.6596 39.593 40.3243 40.1172 41.0333 40.5978C41.6537 41.1657 42.3184 41.69 42.8944 42.3016C43.4262 42.9133 44.0465 43.5249 44.534 44.1802C45.0214 44.8356 45.5532 45.5346 45.952 46.1899L46.5723 47.3258C46.7496 47.719 46.8825 48.0685 47.0155 48.418C47.1927 48.7675 47.237 49.1607 47.37 49.5539C47.4586 49.9471 47.5472 50.3403 47.5915 50.7335C47.8131 52.3499 47.7245 53.9664 47.3257 55.5829C46.9712 57.1557 46.3951 58.7284 45.6861 60.2575C44.2681 63.2283 42.3627 66.0244 40.28 68.6457L39.4824 68.7767C33.6331 69.2573 27.3408 68.4272 21.4472 65.8933Z" fill="#002C43"/>
<path fill-rule="evenodd" clip-rule="evenodd" d="M30.8414 48.1996C27.4294 48.1996 24.682 50.9083 24.682 54.2286C24.682 57.5489 27.4737 60.2575 30.8414 60.2575C34.2535 60.2575 37.0009 57.5489 37.0009 54.2286C37.0009 50.9083 34.2535 48.1996 30.8414 48.1996ZM30.8414 59.3401C27.9611 59.3401 25.6126 57.0683 25.6126 54.2286C25.6126 51.3888 27.9611 49.117 30.8414 49.117C33.7217 49.117 36.0703 51.3888 36.0703 54.2286C36.0703 57.0683 33.7217 59.3401 30.8414 59.3401Z" fill="#002C43"/>
<path fill-rule="evenodd" clip-rule="evenodd" d="M36.6907 12.2004C33.5445 12.2004 30.9744 14.6907 30.9744 17.7489C30.9744 20.807 33.5445 23.2973 36.6907 23.2973C39.8369 23.2973 42.407 20.807 42.407 17.7489C42.3627 14.7344 39.8369 12.2004 36.6907 12.2004Z" fill="#002C43"/>
</svg>
