<svg width="70" height="70" viewBox="0 0 70 70" fill="none" xmlns="http://www.w3.org/2000/svg">
<path d="M40.9889 51.9264C40.9889 55.2257 38.2993 57.9153 35 57.9153C31.7007 57.9153 29.0111 55.2257 29.0111 51.9264C29.0111 48.6271 31.7007 45.9375 35 45.9375C38.2993 45.9375 40.9889 48.6271 40.9889 51.9264ZM70 35C70 54.3289 54.3289 70 35 70C15.6711 70 0 54.3289 0 35C0 15.6711 15.6711 0 35 0C54.3289 0 70 15.6711 70 35ZM18.7192 62.1464C18.6476 62.0748 18.6114 61.9671 18.5399 61.8956C15.456 57.5563 14.9897 50.8503 17.4642 45.2204C20.0461 39.3034 25.2459 35.4663 31.8084 34.6414C38.9807 33.7451 43.5349 32.3104 46.6546 30.0156C49.7747 27.6846 51.4959 24.2779 52.0695 19.2216C52.6431 14.0576 50.2406 9.324 47.8738 6.02506C43.8931 4.26806 39.5181 3.3355 35.0358 3.3355C26.5728 3.3355 18.6476 6.63483 12.6587 12.6233C6.63406 18.6118 3.33511 26.537 3.33511 35C3.33511 43.463 6.63444 51.3882 12.6229 57.3771C14.4877 59.2418 16.5317 60.8195 18.7192 62.1464ZM66.5323 35C66.5323 26.537 63.2329 18.6118 57.2444 12.6229C55.9176 11.2961 54.4472 10.0769 52.941 9.00083C54.3756 12.0847 55.3078 15.7068 54.8777 19.5798C54.2321 25.4967 52.1166 29.5847 48.2794 32.4539C44.7292 35.0719 39.7087 36.6854 32.0343 37.6538C24.5754 38.5863 21.3477 43.535 20.0927 46.4038C18.0487 51.1016 18.3357 56.5884 20.8456 60.1024L21.1684 60.4609V60.6045C22.4233 62.5411 24.1088 64.1546 26.117 65.41C28.9639 66.2162 31.9082 66.6264 34.867 66.6291C43.33 66.6291 51.2552 63.3298 57.2441 57.3413C63.2333 51.3882 66.5323 43.463 66.5323 35ZM28.7961 18.0736C28.7961 14.6669 31.5572 11.8697 35 11.8697C38.4067 11.8697 41.2039 14.6308 41.2039 18.0736C41.2039 21.4803 38.4428 24.2776 35 24.2776C31.5933 24.2418 28.7961 21.4807 28.7961 18.0736ZM31.3421 18.0736C31.3421 20.0818 32.9918 21.7315 35 21.7315C37.0082 21.7315 38.6579 20.0818 38.6579 18.0736C38.6579 16.0654 37.0082 14.4161 35 14.4161C32.9918 14.3799 31.3421 16.0296 31.3421 18.0736Z" fill="#002C43"/>
</svg>
